<svg id="svg" version="1.1" xmlns="http://www.w3.org/2000/svg" xmlns:xlink="http://www.w3.org/1999/xlink" width="400" height="400" viewBox="0, 0, 400,400"><g id="svgg"><path id="path0" d="M333.421 5.692 C 333.333 5.971,333.063 6.845,332.821 7.634 C 332.293 9.356,330.696 10.925,328.840 11.546 C 327.852 11.876,312.410 12.000,272.240 12.001 C 217.825 12.003,216.981 12.015,215.696 12.798 C 212.590 14.692,212.803 11.743,212.804 52.800 C 212.805 93.839,212.559 90.475,215.724 92.626 L 217.158 93.600 300.384 93.600 L 383.611 93.600 384.937 92.731 C 385.666 92.253,386.653 91.266,387.131 90.537 L 388.000 89.211 387.999 52.706 C 387.997 16.984,387.980 16.172,387.202 14.896 C 385.440 12.006,385.426 12.003,369.846 12.001 C 354.778 12.000,353.619 11.869,351.599 9.939 C 350.501 8.890,350.224 8.276,349.910 6.200 C 349.759 5.200,333.732 4.706,333.421 5.692 M281.738 24.013 C 286.345 26.179,286.297 32.695,281.659 34.633 C 279.437 35.562,242.727 35.425,240.835 34.481 C 236.553 32.344,236.556 26.314,240.842 24.122 C 243.469 22.778,278.910 22.684,281.738 24.013 M369.894 23.697 C 372.534 24.386,375.614 27.466,376.303 30.106 C 377.016 32.841,377.001 72.688,376.285 75.080 C 375.559 77.506,373.561 80.132,371.761 81.026 C 369.577 82.109,326.519 82.451,323.769 81.406 C 321.733 80.633,319.703 78.689,318.748 76.600 C 317.842 74.616,317.590 32.110,318.469 29.560 C 319.390 26.889,321.457 24.929,324.597 23.748 C 326.393 23.073,367.325 23.027,369.894 23.697 M294.281 47.285 C 298.011 48.904,299.163 53.715,296.493 56.518 C 294.268 58.854,294.937 58.801,267.651 58.789 L 242.600 58.777 240.842 57.878 C 236.556 55.686,236.553 49.656,240.835 47.519 C 242.594 46.642,292.296 46.424,294.281 47.285 M293.640 70.455 C 298.575 72.108,299.499 78.247,295.241 81.092 L 293.882 82.000 267.800 82.000 L 241.718 82.000 240.359 81.092 C 236.090 78.240,236.940 72.339,241.874 70.580 C 243.907 69.854,291.505 69.740,293.640 70.455 M218.000 159.078 C 215.853 159.862,214.629 160.694,213.776 161.950 L 212.800 163.386 212.800 200.000 L 212.800 236.614 213.776 238.050 C 215.973 241.283,207.633 240.986,299.600 241.116 C 384.416 241.237,382.981 241.261,385.493 239.679 C 388.155 238.003,388.000 240.464,388.000 199.946 L 388.000 163.386 387.024 161.950 C 384.826 158.714,393.230 159.009,300.800 158.930 C 255.590 158.891,218.330 158.958,218.000 159.078 M282.663 171.821 C 286.297 174.593,285.966 179.555,282.006 181.659 C 279.923 182.767,242.992 182.802,240.828 181.699 C 236.671 179.580,236.547 174.048,240.600 171.544 C 241.726 170.849,243.022 170.803,261.562 170.801 L 281.324 170.800 282.663 171.821 M370.913 171.339 C 371.621 171.636,372.784 172.371,373.497 172.972 C 374.695 173.982,375.087 174.636,376.344 177.719 C 376.987 179.296,376.987 220.704,376.344 222.281 C 375.090 225.357,374.699 226.014,373.549 226.982 C 370.859 229.245,371.390 229.201,347.051 229.191 L 324.600 229.181 322.614 228.091 C 321.248 227.340,320.249 226.386,319.414 225.032 L 318.200 223.064 318.079 200.832 C 317.950 177.116,317.967 176.870,319.952 174.130 C 322.404 170.745,321.605 170.843,347.113 170.820 C 365.132 170.804,369.883 170.908,370.913 171.339 M296.167 195.794 C 299.761 199.388,297.786 205.130,292.748 205.735 C 289.940 206.072,246.458 206.077,243.240 205.741 C 237.845 205.177,235.705 199.575,239.453 195.827 L 240.880 194.400 267.827 194.400 L 294.773 194.400 296.167 195.794 M32.000 200.006 C 23.196 201.532,14.909 209.437,12.592 218.520 C 11.502 222.790,11.754 247.744,12.907 249.770 C 14.507 252.582,16.337 253.200,23.063 253.200 L 28.800 253.200 28.800 245.528 C 28.800 237.711,28.953 236.630,30.550 233.200 C 32.117 229.835,36.945 225.600,39.214 225.600 C 39.620 225.600,40.064 225.420,40.200 225.200 C 40.652 224.469,79.441 224.687,81.584 225.433 C 89.691 228.256,92.360 233.362,92.386 246.100 L 92.400 253.200 98.265 253.200 C 105.042 253.200,106.644 252.639,108.304 249.685 C 109.462 247.624,109.700 222.783,108.603 218.520 C 106.455 210.173,99.628 203.117,91.000 200.325 C 89.966 199.991,87.136 199.806,83.000 199.804 L 76.600 199.800 73.600 201.156 C 68.112 203.637,66.453 204.000,60.600 204.000 C 54.850 204.000,49.840 202.835,45.734 200.542 C 43.935 199.538,36.399 199.244,32.000 200.006 M294.792 218.301 C 298.746 220.287,299.094 225.409,295.463 228.179 L 294.124 229.200 268.042 229.200 C 246.421 229.200,241.776 229.104,240.880 228.638 C 236.616 226.420,236.587 220.464,240.828 218.301 C 242.935 217.226,292.654 217.226,294.792 218.301 M215.642 307.399 C 212.569 309.569,212.805 306.255,212.804 347.200 C 212.803 383.018,212.820 383.828,213.598 385.104 C 215.368 388.008,215.278 387.993,231.800 388.029 C 249.686 388.068,250.660 388.306,251.900 392.941 L 252.397 394.800 259.994 394.800 L 267.591 394.800 267.845 393.209 C 268.156 391.266,270.069 389.047,271.960 388.438 C 272.918 388.129,289.641 388.000,328.560 387.999 C 382.975 387.997,383.819 387.985,385.104 387.202 C 388.210 385.308,387.997 388.244,387.999 347.294 L 388.000 310.789 387.131 309.463 C 386.653 308.734,385.666 307.747,384.937 307.269 L 383.611 306.400 300.306 306.420 L 217.000 306.439 215.642 307.399 M282.411 318.900 C 286.255 321.503,286.047 326.600,281.999 328.978 C 279.846 330.243,242.985 330.262,240.842 329.000 C 236.833 326.639,236.584 321.430,240.359 318.908 L 241.718 318.000 261.400 318.000 L 281.082 318.000 282.411 318.900 M371.761 318.974 C 373.470 319.823,375.436 322.317,376.260 324.685 C 376.671 325.864,376.789 330.861,376.794 347.206 C 376.803 379.067,379.051 376.803,347.406 376.794 C 325.493 376.788,324.905 376.744,321.990 374.926 C 317.987 372.428,317.999 372.507,318.009 347.040 C 318.021 315.163,315.155 317.965,347.600 318.104 C 369.039 318.195,370.280 318.240,371.761 318.974 M294.051 341.767 C 299.113 343.896,299.253 350.557,294.281 352.715 C 292.296 353.576,242.594 353.358,240.835 352.481 C 236.553 350.344,236.556 344.314,240.842 342.122 L 242.600 341.223 267.651 341.211 C 288.394 341.202,292.934 341.298,294.051 341.767 M294.518 365.391 C 297.896 366.803,299.056 371.829,296.600 374.406 C 294.252 376.870,295.093 376.801,267.651 376.789 L 242.600 376.777 240.842 375.878 C 236.556 373.686,236.553 367.656,240.835 365.519 C 242.776 364.551,292.225 364.434,294.518 365.391 " stroke="none" fill="#fafafa" fill-rule="evenodd"></path><path id="path1" d="M329.783 35.700 C 329.677 35.975,329.638 43.850,329.696 53.200 L 329.800 70.200 347.200 70.200 L 364.600 70.200 364.704 52.700 L 364.808 35.200 347.392 35.200 C 333.827 35.200,329.932 35.311,329.783 35.700 M56.400 134.184 C 50.557 135.516,46.156 138.601,43.029 143.554 C 41.844 145.431,40.279 149.880,40.613 150.420 C 40.756 150.652,48.575 150.800,60.624 150.800 L 80.400 150.800 80.400 149.819 C 80.400 148.898,80.114 147.996,79.061 145.600 C 75.343 137.140,65.401 132.131,56.400 134.184 M329.783 182.900 C 329.677 183.175,329.638 191.050,329.696 200.400 L 329.800 217.400 347.300 217.504 L 364.800 217.608 364.800 200.004 L 364.800 182.400 347.387 182.400 C 333.826 182.400,329.932 182.511,329.783 182.900 M329.785 330.096 C 329.678 330.373,329.638 338.250,329.696 347.600 L 329.800 364.600 347.304 364.704 L 364.808 364.808 364.704 347.304 L 364.600 329.800 347.289 329.696 C 333.654 329.614,329.937 329.699,329.785 330.096 " stroke="none" fill="#fa7324" fill-rule="evenodd"></path><path id="path2" d="M212.300 0.287 C 211.695 0.378,211.200 0.621,211.200 0.827 C 211.200 1.032,210.840 1.200,210.400 1.200 C 209.960 1.200,209.600 1.380,209.600 1.600 C 209.600 1.820,209.396 2.000,209.147 2.000 C 208.898 2.000,208.403 2.316,208.047 2.703 C 207.691 3.089,206.925 3.649,206.344 3.947 C 205.763 4.244,205.044 4.963,204.747 5.544 C 204.449 6.125,203.921 6.870,203.572 7.200 C 203.224 7.530,202.684 8.385,202.372 9.100 C 202.060 9.815,201.669 10.400,201.502 10.400 C 201.336 10.400,201.200 10.850,201.200 11.400 C 201.200 11.950,201.020 12.400,200.800 12.400 C 200.540 12.400,200.400 18.200,200.400 29.000 L 200.400 45.600 184.800 45.600 C 174.667 45.600,169.200 45.740,169.200 46.000 C 169.200 46.220,168.922 46.400,168.582 46.400 C 167.782 46.400,166.000 48.182,166.000 48.982 C 166.000 49.322,165.820 49.600,165.600 49.600 C 165.335 49.600,165.200 73.800,165.200 121.400 L 165.200 193.200 152.412 193.200 C 137.847 193.200,135.671 193.679,135.613 196.900 C 135.606 197.285,135.420 197.600,135.200 197.600 C 134.978 197.600,134.800 198.667,134.800 200.000 C 134.800 201.333,134.978 202.400,135.200 202.400 C 135.420 202.400,135.600 202.726,135.600 203.125 C 135.600 206.239,138.204 206.800,152.649 206.800 L 165.200 206.800 165.200 278.600 C 165.200 326.200,165.335 350.400,165.600 350.400 C 165.820 350.400,166.000 350.678,166.000 351.018 C 166.000 351.818,167.782 353.600,168.582 353.600 C 168.922 353.600,169.200 353.780,169.200 354.000 C 169.200 354.260,174.667 354.400,184.800 354.400 L 200.400 354.400 200.400 370.776 C 200.400 381.263,200.544 387.242,200.800 387.400 C 201.020 387.536,201.200 388.087,201.200 388.624 C 201.200 389.161,201.336 389.600,201.502 389.600 C 201.669 389.600,202.060 390.185,202.372 390.900 C 202.684 391.615,203.224 392.470,203.572 392.800 C 203.921 393.130,204.449 393.875,204.747 394.456 C 205.044 395.037,205.763 395.756,206.344 396.053 C 206.925 396.351,207.691 396.911,208.047 397.297 C 208.403 397.684,208.898 398.000,209.147 398.000 C 209.396 398.000,209.600 398.180,209.600 398.400 C 209.600 398.620,209.945 398.800,210.367 398.800 C 210.788 398.800,211.208 399.025,211.300 399.300 C 211.629 400.288,250.323 399.996,251.040 399.000 C 251.356 398.560,251.882 397.883,252.208 397.495 C 253.000 396.553,252.954 395.889,252.056 395.328 C 251.640 395.068,251.204 394.183,251.065 393.319 C 250.899 392.277,250.353 391.324,249.387 390.387 L 247.956 389.000 231.783 388.800 L 215.610 388.600 213.905 386.894 L 212.200 385.188 212.200 347.216 L 212.200 309.244 213.586 307.814 C 215.843 305.486,211.820 305.583,301.060 305.695 L 384.200 305.800 385.600 306.629 C 386.410 307.110,387.379 308.204,387.900 309.229 L 388.801 311.000 388.700 347.800 L 388.600 384.600 387.710 385.847 C 385.563 388.858,391.192 388.576,328.600 388.800 C 279.776 388.974,272.472 389.077,271.600 389.600 C 269.652 390.769,269.221 391.322,268.603 393.449 C 268.212 394.793,267.757 395.600,267.389 395.600 C 267.065 395.600,266.800 395.780,266.800 396.000 C 266.800 396.220,266.980 396.400,267.200 396.400 C 267.420 396.400,267.600 396.688,267.600 397.040 C 267.600 397.391,268.162 398.204,268.849 398.846 L 270.098 400.013 329.664 399.906 C 368.859 399.836,389.327 399.663,389.515 399.399 C 389.672 399.179,390.337 398.729,390.993 398.399 C 391.649 398.070,392.711 397.305,393.352 396.700 C 393.994 396.095,394.762 395.600,395.059 395.600 C 395.357 395.600,395.600 395.357,395.600 395.059 C 395.600 394.762,396.095 393.994,396.700 393.352 C 397.305 392.711,398.070 391.649,398.399 390.993 C 398.729 390.337,399.179 389.672,399.399 389.515 C 400.043 389.056,399.944 305.515,399.300 305.300 C 399.025 305.208,398.800 304.788,398.800 304.367 C 398.800 303.945,398.620 303.600,398.400 303.600 C 398.180 303.600,398.000 303.280,398.000 302.888 C 398.000 302.497,397.640 301.917,397.200 301.600 C 396.760 301.283,396.400 300.793,396.400 300.512 C 396.400 300.230,396.220 300.000,396.000 300.000 C 395.780 300.000,395.600 299.742,395.600 299.427 C 395.600 299.112,395.234 298.738,394.787 298.596 C 394.340 298.454,393.575 297.947,393.087 297.469 C 392.599 296.991,391.300 296.175,390.200 295.656 C 389.100 295.137,387.887 294.552,387.505 294.356 C 386.585 293.884,214.215 293.884,213.295 294.356 C 212.913 294.552,211.700 295.137,210.600 295.656 C 209.500 296.175,208.201 296.991,207.713 297.469 C 207.225 297.947,206.460 298.454,206.013 298.596 C 205.566 298.738,205.200 299.112,205.200 299.427 C 205.200 299.742,205.020 300.000,204.800 300.000 C 204.580 300.000,204.400 300.230,204.400 300.512 C 204.400 300.793,204.040 301.283,203.600 301.600 C 203.160 301.917,202.800 302.497,202.800 302.888 C 202.800 303.280,202.620 303.600,202.400 303.600 C 202.180 303.600,202.000 303.960,202.000 304.400 C 202.000 304.840,201.820 305.200,201.600 305.200 C 201.380 305.200,201.200 305.549,201.200 305.976 C 201.200 306.403,201.020 306.864,200.800 307.000 C 200.543 307.159,200.400 313.337,200.400 324.224 L 200.400 341.200 189.400 341.200 L 178.400 341.200 178.400 274.000 L 178.400 206.800 189.400 206.800 L 200.400 206.800 200.400 223.376 C 200.400 233.996,200.544 240.042,200.800 240.200 C 201.020 240.336,201.200 240.887,201.200 241.424 C 201.200 241.961,201.380 242.400,201.600 242.400 C 201.820 242.400,202.000 242.760,202.000 243.200 C 202.000 243.640,202.150 244.000,202.332 244.000 C 202.515 244.000,202.920 244.492,203.232 245.094 C 204.058 246.685,207.641 250.174,209.124 250.831 C 209.826 251.141,210.400 251.531,210.400 251.698 C 210.400 251.864,210.749 252.000,211.176 252.000 C 211.603 252.000,212.064 252.180,212.200 252.400 C 212.336 252.620,212.966 252.800,213.600 252.800 C 214.234 252.800,214.864 252.980,215.000 253.200 C 215.342 253.754,385.458 253.754,385.800 253.200 C 385.936 252.980,386.470 252.800,386.986 252.800 C 387.936 252.800,391.288 251.252,391.533 250.700 C 391.607 250.535,391.926 250.400,392.242 250.400 C 392.959 250.400,397.200 246.206,397.200 245.497 C 397.200 245.211,397.560 244.717,398.000 244.400 C 398.440 244.083,398.800 243.518,398.800 243.145 C 398.800 242.772,399.025 242.392,399.300 242.300 C 400.034 242.055,400.034 157.945,399.300 157.700 C 399.025 157.608,398.800 157.188,398.800 156.767 C 398.800 156.345,398.650 156.000,398.468 156.000 C 398.285 156.000,397.880 155.508,397.568 154.906 C 396.783 153.394,392.951 149.600,392.209 149.600 C 391.874 149.600,391.600 149.420,391.600 149.200 C 391.600 148.980,391.330 148.800,391.000 148.800 C 390.670 148.800,390.400 148.620,390.400 148.400 C 390.400 148.180,390.051 148.000,389.624 148.000 C 389.197 148.000,388.736 147.820,388.600 147.600 C 388.464 147.380,387.834 147.200,387.200 147.200 C 386.566 147.200,385.936 147.020,385.800 146.800 C 385.636 146.535,356.737 146.400,300.400 146.400 C 244.063 146.400,215.164 146.535,215.000 146.800 C 214.864 147.020,214.234 147.200,213.600 147.200 C 212.966 147.200,212.336 147.380,212.200 147.600 C 212.064 147.820,211.603 148.000,211.176 148.000 C 210.749 148.000,210.400 148.136,210.400 148.302 C 210.400 148.469,209.826 148.859,209.124 149.169 C 207.641 149.826,204.058 153.315,203.232 154.906 C 202.920 155.508,202.515 156.000,202.332 156.000 C 202.150 156.000,202.000 156.360,202.000 156.800 C 202.000 157.240,201.820 157.600,201.600 157.600 C 201.380 157.600,201.200 158.039,201.200 158.576 C 201.200 159.113,201.020 159.664,200.800 159.800 C 200.544 159.958,200.400 166.004,200.400 176.624 L 200.400 193.200 189.400 193.200 L 178.400 193.200 178.400 126.000 L 178.400 58.800 189.400 58.800 L 200.400 58.800 200.400 75.776 C 200.400 86.663,200.543 92.841,200.800 93.000 C 201.020 93.136,201.200 93.597,201.200 94.024 C 201.200 94.451,201.380 94.800,201.600 94.800 C 201.820 94.800,202.000 95.160,202.000 95.600 C 202.000 96.040,202.180 96.400,202.400 96.400 C 202.620 96.400,202.800 96.672,202.800 97.004 C 202.800 97.336,203.340 98.172,204.000 98.863 C 204.660 99.554,205.200 100.350,205.200 100.632 C 205.200 100.915,205.566 101.262,206.013 101.404 C 206.460 101.546,207.225 102.053,207.713 102.531 C 208.201 103.009,209.500 103.825,210.600 104.344 C 211.700 104.863,212.913 105.448,213.295 105.644 C 214.295 106.157,387.200 106.114,387.200 105.600 C 387.200 105.380,387.543 105.200,387.962 105.200 C 388.911 105.200,391.905 103.670,393.049 102.600 C 393.520 102.160,394.466 101.352,395.152 100.804 C 395.839 100.257,396.400 99.622,396.400 99.393 C 396.400 99.164,396.760 98.717,397.200 98.400 C 397.640 98.083,398.000 97.503,398.000 97.112 C 398.000 96.720,398.180 96.400,398.400 96.400 C 398.620 96.400,398.800 96.055,398.800 95.633 C 398.800 95.212,399.025 94.792,399.300 94.700 C 399.944 94.485,400.043 10.944,399.399 10.485 C 399.179 10.328,398.730 9.660,398.402 9.000 C 398.074 8.340,397.533 7.530,397.200 7.200 C 396.867 6.870,396.351 6.125,396.053 5.544 C 395.756 4.963,395.037 4.244,394.456 3.947 C 393.875 3.649,393.130 3.133,392.800 2.800 C 392.470 2.467,391.660 1.926,391.000 1.598 C 390.340 1.270,389.672 0.821,389.515 0.601 C 389.334 0.346,382.471 0.157,370.677 0.082 L 352.124 -0.037 350.862 1.142 C 349.521 2.394,349.294 3.504,350.087 4.926 C 350.355 5.407,350.858 6.599,351.205 7.576 C 352.413 10.976,352.363 10.967,369.600 11.198 C 386.207 11.422,385.704 11.340,387.710 14.153 L 388.600 15.400 388.700 52.200 L 388.801 89.000 387.900 90.771 C 387.379 91.796,386.410 92.890,385.600 93.371 L 384.200 94.200 301.060 94.305 C 211.820 94.417,215.843 94.514,213.586 92.186 L 212.200 90.756 212.200 52.784 L 212.200 14.812 213.906 13.106 L 215.612 11.400 271.906 11.200 C 325.127 11.011,328.272 10.961,329.518 10.281 C 330.995 9.474,332.396 7.451,332.399 6.123 C 332.399 5.640,332.773 4.984,333.229 4.664 C 334.202 3.983,333.836 3.035,331.858 1.111 L 330.715 0.000 272.058 0.060 C 239.796 0.093,212.905 0.195,212.300 0.287 M242.525 24.278 C 238.704 24.784,237.221 29.567,239.971 32.515 L 241.542 34.200 259.871 34.323 C 280.410 34.461,281.068 34.418,282.750 32.847 C 285.059 30.689,284.490 26.298,281.707 24.807 C 280.639 24.235,246.350 23.772,242.525 24.278 M325.800 24.263 C 323.099 24.635,319.927 27.360,319.216 29.918 C 318.630 32.028,318.659 73.277,319.248 75.399 C 319.845 77.550,322.524 80.187,324.709 80.776 C 327.340 81.484,369.867 81.190,371.159 80.454 C 372.493 79.695,374.485 77.617,375.200 76.237 C 376.160 74.384,376.093 31.208,375.126 29.200 C 374.433 27.760,372.563 25.858,370.800 24.800 C 369.842 24.225,329.565 23.745,325.800 24.263 M365.200 52.800 L 365.200 70.800 347.200 70.800 L 329.200 70.800 329.200 52.800 L 329.200 34.800 347.200 34.800 L 365.200 34.800 365.200 52.800 M242.124 47.879 C 238.637 48.557,237.386 53.343,239.971 56.115 L 241.542 57.800 267.071 57.800 C 281.112 57.800,293.062 57.670,293.626 57.511 C 298.033 56.269,298.458 50.277,294.273 48.377 C 292.694 47.660,245.568 47.210,242.124 47.879 M240.083 72.915 C 237.726 75.317,237.708 77.162,240.019 79.419 L 241.638 81.000 267.150 81.109 C 295.390 81.229,294.810 81.277,296.434 78.690 C 297.407 77.141,297.281 74.395,296.183 73.181 C 294.356 71.163,294.896 71.200,267.422 71.200 L 241.767 71.200 240.083 72.915 M54.400 122.000 C 54.400 122.220,53.601 122.400,52.624 122.400 C 51.647 122.400,50.736 122.580,50.600 122.800 C 50.464 123.020,50.003 123.200,49.576 123.200 C 49.149 123.200,48.800 123.380,48.800 123.600 C 48.800 123.820,48.260 124.000,47.600 124.000 C 46.940 124.000,46.400 124.180,46.400 124.400 C 46.400 124.620,46.121 124.800,45.781 124.800 C 45.440 124.800,44.170 125.434,42.958 126.210 C 41.084 127.409,40.039 128.269,37.556 130.657 C 35.681 132.460,33.200 135.287,33.200 135.619 C 33.200 135.847,32.840 136.420,32.400 136.892 C 31.960 137.364,31.600 137.987,31.600 138.275 C 31.600 138.564,31.420 138.800,31.200 138.800 C 30.980 138.800,30.800 139.149,30.800 139.576 C 30.800 140.003,30.620 140.464,30.400 140.600 C 30.180 140.736,30.000 141.287,30.000 141.824 C 30.000 142.361,29.820 142.800,29.600 142.800 C 29.380 142.800,29.200 143.239,29.200 143.776 C 29.200 144.313,29.020 144.864,28.800 145.000 C 28.580 145.136,28.400 146.036,28.400 147.000 C 28.400 147.964,28.220 148.864,28.000 149.000 C 27.746 149.157,27.600 154.330,27.600 163.200 C 27.600 172.070,27.746 177.243,28.000 177.400 C 28.220 177.536,28.400 178.209,28.400 178.895 C 28.400 180.138,28.982 182.374,29.649 183.695 C 29.842 184.077,30.000 184.662,30.000 184.995 C 30.000 185.328,30.180 185.600,30.400 185.600 C 30.994 185.600,30.884 186.773,30.229 187.429 C 29.914 187.743,29.025 188.000,28.252 188.000 C 27.479 188.000,26.736 188.180,26.600 188.400 C 26.464 188.620,25.823 188.800,25.176 188.800 C 24.529 188.800,24.000 188.980,24.000 189.200 C 24.000 189.420,23.651 189.600,23.224 189.600 C 22.797 189.600,22.336 189.780,22.200 190.000 C 22.064 190.220,21.513 190.400,20.976 190.400 C 20.439 190.400,20.000 190.580,20.000 190.800 C 20.000 191.020,19.640 191.200,19.200 191.200 C 18.760 191.200,18.400 191.345,18.400 191.523 C 18.400 191.701,17.680 192.164,16.800 192.552 C 15.920 192.940,15.200 193.425,15.200 193.629 C 15.200 193.833,14.946 194.000,14.635 194.000 C 13.711 194.000,6.000 202.044,6.000 203.008 C 6.000 203.236,5.640 203.683,5.200 204.000 C 4.760 204.317,4.400 204.897,4.400 205.288 C 4.400 205.680,4.220 206.000,4.000 206.000 C 3.780 206.000,3.600 206.360,3.600 206.800 C 3.600 207.240,3.420 207.600,3.200 207.600 C 2.980 207.600,2.800 207.960,2.800 208.400 C 2.800 208.840,2.620 209.200,2.400 209.200 C 2.180 209.200,2.000 209.650,2.000 210.200 C 2.000 210.750,1.820 211.200,1.600 211.200 C 1.380 211.200,1.200 211.725,1.200 212.367 C 1.200 213.008,0.975 213.608,0.700 213.700 C -0.031 213.943,-0.031 254.056,0.700 254.300 C 0.975 254.392,1.200 254.812,1.200 255.233 C 1.200 255.655,1.380 256.000,1.600 256.000 C 1.820 256.000,2.000 256.198,2.000 256.440 C 2.000 256.681,2.540 257.383,3.200 258.000 C 3.860 258.617,4.400 259.409,4.400 259.760 C 4.400 260.112,4.643 260.400,4.941 260.400 C 5.238 260.400,6.016 260.911,6.669 261.535 C 7.321 262.159,8.428 262.922,9.128 263.232 C 9.828 263.542,10.400 263.931,10.400 264.098 C 10.400 264.264,10.760 264.400,11.200 264.400 C 11.640 264.400,12.000 264.580,12.000 264.800 C 12.000 265.020,12.799 265.200,13.776 265.200 C 14.753 265.200,15.664 265.380,15.800 265.600 C 15.962 265.863,31.330 266.000,60.600 266.000 C 89.870 266.000,105.238 265.863,105.400 265.600 C 105.536 265.380,106.357 265.200,107.224 265.200 C 108.091 265.200,108.800 265.020,108.800 264.800 C 108.800 264.580,109.160 264.400,109.600 264.400 C 110.040 264.400,110.400 264.220,110.400 264.000 C 110.400 263.780,110.760 263.600,111.200 263.600 C 111.640 263.600,112.000 263.420,112.000 263.200 C 112.000 262.980,112.272 262.800,112.604 262.800 C 113.111 262.800,114.787 261.499,116.143 260.053 C 116.332 259.851,117.065 259.075,117.773 258.327 C 118.480 257.580,119.314 256.390,119.627 255.684 C 119.940 254.978,120.331 254.400,120.498 254.400 C 120.664 254.400,120.800 253.860,120.800 253.200 C 120.800 252.540,120.980 252.000,121.200 252.000 C 121.461 252.000,121.600 245.867,121.600 234.400 C 121.600 222.933,121.461 216.800,121.200 216.800 C 120.980 216.800,120.800 216.080,120.800 215.200 C 120.800 214.320,120.620 213.600,120.400 213.600 C 120.180 213.600,120.000 213.060,120.000 212.400 C 120.000 211.740,119.820 211.200,119.600 211.200 C 119.380 211.200,119.200 210.750,119.200 210.200 C 119.200 209.650,119.020 209.200,118.800 209.200 C 118.580 209.200,118.400 208.840,118.400 208.400 C 118.400 207.960,118.220 207.600,118.000 207.600 C 117.780 207.600,117.600 207.240,117.600 206.800 C 117.600 206.360,117.420 206.000,117.200 206.000 C 116.980 206.000,116.800 205.775,116.800 205.500 C 116.799 205.225,116.349 204.477,115.800 203.838 C 115.250 203.199,114.800 202.530,114.800 202.352 C 114.800 201.902,106.912 194.000,106.463 194.000 C 106.262 194.000,105.888 193.747,105.631 193.438 C 105.375 193.128,103.957 192.303,102.482 191.603 C 101.007 190.903,99.487 190.166,99.105 189.965 C 98.723 189.764,98.138 189.600,97.805 189.600 C 97.472 189.600,97.200 189.420,97.200 189.200 C 97.200 188.980,96.671 188.800,96.024 188.800 C 95.377 188.800,94.736 188.620,94.600 188.400 C 94.464 188.180,93.636 188.000,92.760 188.000 C 89.987 188.000,89.789 186.156,92.061 181.505 C 92.247 181.123,92.400 180.088,92.400 179.205 C 92.400 178.322,92.580 177.600,92.800 177.600 C 93.059 177.600,93.200 172.533,93.200 163.200 C 93.200 153.867,93.059 148.800,92.800 148.800 C 92.580 148.800,92.400 147.900,92.400 146.800 C 92.400 145.700,92.243 144.800,92.051 144.800 C 91.859 144.800,91.582 144.046,91.434 143.124 C 91.177 141.517,88.932 136.743,88.303 136.467 C 88.137 136.393,88.000 136.110,88.000 135.837 C 88.000 135.443,85.336 132.248,83.715 130.699 C 81.186 128.282,79.370 126.800,78.936 126.800 C 78.641 126.800,78.400 126.653,78.400 126.474 C 78.400 126.076,75.799 124.800,74.986 124.800 C 74.664 124.800,74.400 124.620,74.400 124.400 C 74.400 124.180,73.950 124.000,73.400 124.000 C 72.850 124.000,72.400 123.820,72.400 123.600 C 72.400 123.380,71.950 123.200,71.400 123.200 C 70.850 123.200,70.400 123.020,70.400 122.800 C 70.400 122.580,69.590 122.400,68.600 122.400 C 67.610 122.400,66.800 122.220,66.800 122.000 C 66.800 121.751,64.467 121.600,60.600 121.600 C 56.733 121.600,54.400 121.751,54.400 122.000 M66.427 133.838 C 74.062 136.081,80.474 142.980,81.114 149.641 L 81.302 151.607 60.551 151.504 L 39.800 151.400 39.669 150.251 C 39.597 149.619,39.732 148.908,39.969 148.671 C 40.206 148.434,40.400 147.951,40.400 147.597 C 40.400 145.414,46.588 136.800,48.156 136.800 C 48.366 136.800,48.885 136.485,49.310 136.100 C 52.002 133.664,61.542 132.403,66.427 133.838 M385.080 159.245 C 389.079 161.491,388.800 158.439,388.800 200.000 C 388.800 241.561,389.079 238.509,385.080 240.755 L 383.576 241.600 300.414 241.600 C 252.880 241.600,216.855 241.448,216.326 241.245 C 215.058 240.758,212.847 238.576,212.382 237.354 C 211.867 235.998,211.867 164.002,212.382 162.646 C 212.821 161.492,215.020 159.265,216.200 158.780 C 216.640 158.599,254.480 158.439,300.288 158.425 L 383.576 158.400 385.080 159.245 M81.914 167.800 C 82.062 175.658,80.880 181.473,78.655 183.829 C 77.752 184.785,76.800 186.014,76.800 186.223 C 76.800 186.650,74.953 188.241,73.000 189.495 C 71.900 190.201,70.820 190.926,70.600 191.106 C 68.599 192.741,55.821 194.129,55.000 192.800 C 54.864 192.580,54.401 192.400,53.971 192.400 C 53.541 192.400,52.877 192.232,52.495 192.026 C 52.113 191.821,51.215 191.417,50.500 191.129 C 49.785 190.840,49.200 190.469,49.200 190.302 C 49.200 190.136,48.940 190.000,48.622 190.000 C 47.870 190.000,42.800 184.930,42.800 184.178 C 42.800 183.860,42.653 183.600,42.474 183.600 C 42.030 183.600,40.400 180.489,40.400 179.642 C 40.400 179.267,40.195 178.755,39.944 178.504 C 39.449 178.009,38.900 163.359,39.334 162.229 C 39.553 161.657,41.701 161.603,60.689 161.696 L 81.800 161.800 81.914 167.800 M240.660 172.425 C 237.652 174.790,237.792 178.909,240.946 180.833 C 242.608 181.846,279.597 182.036,281.521 181.041 C 284.599 179.449,285.275 175.491,282.878 173.093 L 281.585 171.800 261.660 171.689 C 241.897 171.580,241.726 171.585,240.660 172.425 M324.800 171.854 C 318.890 173.866,319.000 173.333,319.000 200.000 C 319.000 224.280,319.009 224.381,321.478 226.400 C 323.721 228.235,323.220 228.200,347.361 228.200 C 373.409 228.200,371.625 228.438,374.381 224.602 L 375.800 222.626 375.800 200.000 L 375.800 177.374 374.381 175.398 C 371.635 171.575,373.336 171.811,347.800 171.725 C 335.480 171.684,325.130 171.742,324.800 171.854 M365.000 200.000 L 365.000 218.200 348.000 218.311 C 338.650 218.372,330.595 218.324,330.100 218.204 L 329.200 217.985 329.200 200.026 C 329.200 186.034,329.310 182.022,329.700 181.863 C 329.975 181.751,338.030 181.691,347.600 181.729 L 365.000 181.800 365.000 200.000 M241.000 195.557 C 239.668 196.333,238.438 198.465,238.438 200.000 C 238.438 201.535,239.668 203.667,241.000 204.443 C 242.106 205.087,244.183 205.144,267.546 205.171 C 296.085 205.204,295.035 205.313,296.547 202.143 C 297.747 199.625,296.893 197.049,294.392 195.644 C 292.252 194.441,243.055 194.361,241.000 195.557 M46.307 199.761 C 52.370 202.840,59.888 204.317,64.160 203.268 C 65.062 203.046,66.880 202.633,68.200 202.349 C 69.520 202.065,72.001 201.150,73.713 200.316 L 76.825 198.800 82.713 198.807 C 90.327 198.816,96.717 200.490,98.824 203.029 C 99.085 203.343,99.501 203.604,99.749 203.609 C 100.420 203.622,104.800 207.844,104.800 208.477 C 104.800 208.778,105.160 209.283,105.600 209.600 C 106.040 209.917,106.400 210.497,106.400 210.888 C 106.400 211.280,106.580 211.600,106.800 211.600 C 107.020 211.600,107.200 211.960,107.200 212.400 C 107.200 212.840,107.380 213.200,107.600 213.200 C 107.820 213.200,108.000 213.560,108.000 214.000 C 108.000 214.440,108.180 214.800,108.400 214.800 C 108.620 214.800,108.800 215.340,108.800 216.000 C 108.800 216.660,108.980 217.200,109.200 217.200 C 109.420 217.200,109.600 218.179,109.600 219.376 C 109.600 220.573,109.780 221.664,110.000 221.800 C 110.254 221.957,110.400 226.871,110.400 235.224 C 110.400 243.741,110.259 248.400,110.000 248.400 C 109.780 248.400,109.600 248.760,109.600 249.200 C 109.600 249.640,109.420 250.000,109.200 250.000 C 108.980 250.000,108.800 250.278,108.800 250.618 C 108.800 251.418,107.018 253.200,106.218 253.200 C 105.878 253.200,105.600 253.380,105.600 253.600 C 105.600 253.852,102.933 254.000,98.400 254.000 L 91.200 254.000 91.200 245.056 L 91.200 236.112 89.955 233.698 C 85.974 225.978,83.285 225.200,60.600 225.200 C 38.819 225.200,36.326 225.783,32.343 231.802 C 29.848 235.573,29.583 236.885,29.335 246.700 L 29.151 254.000 23.162 254.000 C 11.369 254.000,11.197 253.726,11.207 234.916 C 11.216 218.062,11.687 215.404,15.683 209.697 C 17.122 207.642,20.647 204.000,21.198 204.000 C 21.388 204.000,21.781 203.763,22.071 203.474 C 22.933 202.616,26.862 200.608,28.800 200.035 C 29.790 199.742,31.050 199.359,31.600 199.183 C 34.187 198.355,44.324 198.754,46.307 199.761 M240.946 219.167 C 237.799 221.086,237.652 225.209,240.646 227.565 C 242.171 228.764,292.212 228.890,294.531 227.700 C 297.944 225.949,297.854 220.996,294.375 219.131 C 292.216 217.973,242.850 218.007,240.946 219.167 M78.537 236.199 C 80.691 237.099,80.800 237.580,80.800 246.174 L 80.800 254.000 60.600 254.000 L 40.400 254.000 40.400 245.849 C 40.400 237.106,40.340 237.379,42.543 236.155 C 43.952 235.372,76.653 235.412,78.537 236.199 M242.000 319.074 C 238.294 320.449,237.364 324.417,240.115 327.117 L 241.830 328.800 261.256 328.800 L 280.682 328.800 282.041 327.887 C 284.874 325.984,284.991 321.875,282.271 319.843 C 281.166 319.018,244.061 318.310,242.000 319.074 M324.200 319.401 C 318.969 321.252,318.804 322.104,318.804 347.400 C 318.804 372.387,318.854 372.663,323.761 375.200 C 325.468 376.083,368.876 376.101,370.639 375.220 C 375.877 372.602,375.800 373.020,375.800 347.161 C 375.800 315.987,378.636 318.797,347.200 318.820 C 329.800 318.832,325.501 318.941,324.200 319.401 M365.504 347.304 L 365.608 365.608 347.304 365.504 L 329.000 365.400 328.896 347.600 C 328.838 337.810,328.878 329.573,328.985 329.296 C 329.137 328.899,333.014 328.814,347.289 328.896 L 365.400 329.000 365.504 347.304 M242.325 342.277 C 238.684 342.857,237.311 347.663,239.971 350.515 L 241.542 352.200 266.871 352.314 C 289.614 352.416,292.377 352.360,293.934 351.768 C 298.114 350.177,298.376 345.026,294.392 342.763 C 293.437 342.221,245.487 341.773,242.325 342.277 M242.124 365.879 C 238.637 366.557,237.386 371.343,239.971 374.115 L 241.542 375.800 266.434 375.917 C 294.329 376.049,294.541 376.031,296.310 373.449 C 298.069 370.883,296.902 367.204,294.000 366.163 C 292.656 365.681,244.500 365.418,242.124 365.879 " stroke="none" fill="#040404" fill-rule="evenodd"></path><path id="path3" d="M40.000 169.578 C 40.000 174.341,40.170 177.579,40.457 178.281 C 41.625 181.145,42.871 183.561,43.409 184.008 C 43.734 184.277,44.000 184.680,44.000 184.902 C 44.000 185.427,47.373 188.800,47.898 188.800 C 48.120 188.800,48.529 189.073,48.806 189.407 C 50.845 191.864,60.739 193.712,64.972 192.427 C 65.647 192.222,67.010 191.830,68.000 191.557 C 68.990 191.284,70.172 190.731,70.626 190.330 C 71.080 189.928,71.637 189.600,71.864 189.600 C 72.091 189.600,72.602 189.240,73.000 188.800 C 73.398 188.360,73.884 188.000,74.080 188.000 C 74.543 188.000,76.400 186.143,76.400 185.680 C 76.400 185.484,76.767 184.992,77.216 184.585 C 79.905 182.152,81.288 176.351,81.122 168.200 L 81.000 162.200 60.500 162.096 L 40.000 161.993 40.000 169.578 M43.400 236.678 C 40.979 237.288,40.800 237.923,40.800 245.870 L 40.800 253.200 60.600 253.200 L 80.400 253.200 80.400 245.870 L 80.400 238.539 79.368 237.570 L 78.336 236.600 61.268 236.538 C 51.881 236.504,43.840 236.567,43.400 236.678 " stroke="none" fill="#5a23d1" fill-rule="evenodd"></path><path id="path4" d="M212.192 52.800 C 212.192 72.710,212.240 80.855,212.300 70.900 C 212.359 60.945,212.359 44.655,212.300 34.700 C 212.240 24.745,212.192 32.890,212.192 52.800 M318.186 52.600 C 318.186 64.040,318.237 68.662,318.300 62.872 C 318.362 57.082,318.362 47.722,318.300 42.072 C 318.237 36.422,318.186 41.160,318.186 52.600 M329.861 35.100 C 329.692 35.373,342.564 35.367,358.400 35.088 C 361.810 35.027,356.826 34.938,347.324 34.889 C 337.822 34.840,329.964 34.935,329.861 35.100 M364.800 52.880 C 364.690 62.494,364.737 70.223,364.904 70.056 C 365.072 69.888,365.162 62.022,365.104 52.576 L 365.000 35.400 364.800 52.880 M238.400 55.325 C 238.400 55.394,238.985 55.979,239.700 56.625 L 241.000 57.800 239.825 56.500 C 238.730 55.288,238.400 55.016,238.400 55.325 M255.329 70.700 C 262.330 70.761,273.670 70.761,280.529 70.700 C 287.388 70.638,281.660 70.588,267.800 70.588 C 253.940 70.588,248.328 70.639,255.329 70.700 M320.800 79.000 C 321.546 79.770,322.247 80.400,322.357 80.400 C 322.467 80.400,321.946 79.770,321.200 79.000 C 320.454 78.230,319.753 77.600,319.643 77.600 C 319.533 77.600,320.054 78.230,320.800 79.000 M255.529 81.900 C 262.420 81.961,273.580 81.961,280.329 81.900 C 287.078 81.838,281.440 81.788,267.800 81.788 C 254.160 81.788,248.638 81.838,255.529 81.900 M337.128 81.900 C 342.918 81.962,352.278 81.962,357.928 81.900 C 363.578 81.837,358.840 81.786,347.400 81.786 C 335.960 81.786,331.338 81.837,337.128 81.900 M55.400 134.000 L 54.600 134.344 55.400 134.325 C 55.840 134.314,56.740 134.168,57.400 134.000 L 58.600 133.695 57.400 133.675 C 56.740 133.665,55.840 133.811,55.400 134.000 M63.800 134.000 C 65.492 134.431,66.944 134.431,65.600 134.000 C 65.050 133.824,64.150 133.683,63.600 133.687 C 62.702 133.694,62.722 133.726,63.800 134.000 M51.582 135.346 C 47.295 137.476,44.153 140.378,42.644 143.600 C 42.284 144.370,42.216 144.661,42.494 144.247 C 44.803 140.807,49.671 136.070,51.000 135.971 C 51.735 135.916,54.609 134.459,54.000 134.451 C 53.670 134.446,52.582 134.849,51.582 135.346 M69.000 135.527 C 73.415 137.642,77.252 141.483,79.061 145.600 C 80.114 147.996,80.400 148.898,80.400 149.819 L 80.400 150.800 60.680 150.800 C 45.453 150.800,40.839 150.686,40.430 150.300 C 40.002 149.896,39.935 149.916,40.083 150.400 C 40.242 150.921,42.927 151.014,60.533 151.104 L 80.800 151.207 80.800 150.098 C 80.800 148.670,79.429 144.913,78.399 143.516 C 77.960 142.920,77.600 142.274,77.600 142.080 C 77.600 140.682,70.507 135.405,67.600 134.640 C 67.050 134.496,67.680 134.895,69.000 135.527 M41.050 146.791 C 40.693 147.685,40.406 148.728,40.413 149.108 C 40.420 149.489,40.767 148.812,41.184 147.604 C 42.077 145.016,41.985 144.455,41.050 146.791 M39.763 168.800 C 39.763 172.430,39.823 173.915,39.898 172.100 C 39.972 170.285,39.972 167.315,39.898 165.500 C 39.823 163.685,39.763 165.170,39.763 168.800 M212.192 200.000 C 212.192 219.690,212.240 227.745,212.300 217.900 C 212.359 208.055,212.359 191.945,212.300 182.100 C 212.240 172.255,212.192 180.310,212.192 200.000 M319.285 175.613 C 319.018 176.040,318.801 176.617,318.802 176.895 C 318.804 177.173,319.077 176.878,319.410 176.240 C 320.103 174.911,320.011 174.450,319.285 175.613 M80.846 176.067 C 80.821 176.434,80.696 177.064,80.570 177.467 C 80.352 178.162,80.363 178.163,80.797 177.487 C 81.048 177.096,81.173 176.466,81.073 176.087 C 80.911 175.468,80.888 175.466,80.846 176.067 M318.186 200.000 C 318.186 211.550,318.237 216.275,318.300 210.500 C 318.362 204.725,318.362 195.275,318.300 189.500 C 318.237 183.725,318.186 188.450,318.186 200.000 M79.070 181.410 C 78.921 181.845,78.691 182.470,78.558 182.800 C 78.426 183.130,78.619 182.990,78.988 182.490 C 79.358 181.989,79.588 181.364,79.500 181.100 C 79.410 180.831,79.222 180.967,79.070 181.410 M329.600 182.300 C 329.600 182.573,342.989 182.567,358.800 182.288 C 362.210 182.227,357.035 182.138,347.300 182.089 C 337.565 182.040,329.600 182.135,329.600 182.300 M364.896 200.108 L 364.800 217.616 347.200 217.508 C 337.520 217.449,329.600 217.535,329.600 217.700 C 329.600 218.260,364.801 218.062,365.017 217.500 C 365.122 217.225,365.160 209.260,365.100 199.800 L 364.991 182.600 364.896 200.108 M254.900 194.700 C 261.885 194.761,273.315 194.761,280.300 194.700 C 287.285 194.639,281.570 194.588,267.600 194.588 C 253.630 194.588,247.915 194.639,254.900 194.700 M59.705 203.887 C 60.314 203.979,61.214 203.977,61.705 203.882 C 62.197 203.787,61.700 203.711,60.600 203.714 C 59.500 203.717,59.097 203.795,59.705 203.887 M99.200 203.666 C 99.310 203.762,100.570 204.906,102.000 206.208 L 104.600 208.576 102.600 206.458 C 101.500 205.293,100.240 204.149,99.800 203.916 C 99.360 203.682,99.090 203.570,99.200 203.666 M254.900 205.500 C 261.885 205.561,273.315 205.561,280.300 205.500 C 287.285 205.439,281.570 205.388,267.600 205.388 C 253.630 205.388,247.915 205.439,254.900 205.500 M108.868 218.000 C 108.888 219.039,109.518 220.746,109.532 219.800 C 109.538 219.360,109.389 218.640,109.200 218.200 C 108.989 217.710,108.861 217.632,108.868 218.000 M293.400 218.293 C 294.747 218.630,296.255 219.907,296.935 221.287 C 297.327 222.082,297.585 222.324,297.591 221.900 C 297.605 220.851,294.568 217.991,293.500 218.046 C 292.683 218.089,292.674 218.111,293.400 218.293 M109.779 235.000 C 109.779 242.260,109.833 245.286,109.899 241.725 C 109.965 238.164,109.966 232.224,109.899 228.525 C 109.833 224.826,109.779 227.740,109.779 235.000 M318.815 223.200 C 318.821 223.530,319.090 224.149,319.413 224.576 C 320.168 225.575,320.163 225.205,319.402 223.746 C 319.074 223.116,318.810 222.870,318.815 223.200 M297.200 224.862 C 297.200 225.116,296.737 225.971,296.171 226.762 L 295.142 228.200 296.371 226.815 C 297.460 225.588,297.966 224.400,297.400 224.400 C 297.290 224.400,297.200 224.608,297.200 224.862 M33.251 229.791 C 32.343 230.776,31.600 231.706,31.600 231.858 C 31.600 232.009,31.659 232.058,31.732 231.967 C 31.804 231.875,32.637 230.945,33.583 229.900 C 34.528 228.855,35.212 228.000,35.102 228.000 C 34.992 228.000,34.159 228.806,33.251 229.791 M86.400 228.525 C 86.400 228.594,86.985 229.179,87.700 229.825 L 89.000 231.000 87.825 229.700 C 86.730 228.488,86.400 228.216,86.400 228.525 M43.338 236.306 C 43.084 236.468,50.852 236.600,60.600 236.600 C 70.348 236.600,78.116 236.468,77.862 236.306 C 77.608 236.144,69.840 236.012,60.600 236.012 C 51.360 236.012,43.592 236.144,43.338 236.306 M41.091 237.800 C 40.463 238.663,40.395 239.593,40.501 245.888 L 40.620 253.000 40.710 245.826 C 40.795 239.076,40.851 238.597,41.670 237.726 C 42.148 237.217,42.373 236.806,42.170 236.813 C 41.966 236.819,41.481 237.264,41.091 237.800 M91.787 246.400 L 91.800 253.800 97.900 253.816 L 104.001 253.832 98.009 253.706 L 92.018 253.579 91.896 246.290 L 91.774 239.000 91.787 246.400 M28.800 253.133 C 28.800 253.462,27.174 253.626,23.300 253.687 L 17.800 253.775 23.168 253.899 C 28.140 254.015,29.868 253.734,29.073 252.940 C 28.923 252.790,28.800 252.877,28.800 253.133 M50.728 253.500 C 56.298 253.563,65.298 253.562,70.728 253.500 C 76.158 253.437,71.600 253.385,60.600 253.386 C 49.600 253.386,45.158 253.437,50.728 253.500 M212.192 347.200 C 212.192 367.110,212.240 375.255,212.300 365.300 C 212.359 355.345,212.359 339.055,212.300 329.100 C 212.240 319.145,212.192 327.290,212.192 347.200 M252.327 318.300 C 257.458 318.363,265.738 318.363,270.727 318.300 C 275.717 318.236,271.520 318.184,261.400 318.184 C 251.280 318.184,247.197 318.236,252.327 318.300 M337.128 318.300 C 342.918 318.362,352.278 318.362,357.928 318.300 C 363.578 318.237,358.840 318.186,347.400 318.186 C 335.960 318.186,331.338 318.237,337.128 318.300 M320.778 321.100 L 319.400 322.600 320.900 321.222 C 321.725 320.463,322.400 319.788,322.400 319.722 C 322.400 319.416,322.062 319.704,320.778 321.100 M318.186 347.400 C 318.186 358.840,318.237 363.462,318.300 357.672 C 318.362 351.882,318.362 342.522,318.300 336.872 C 318.237 331.222,318.186 335.960,318.186 347.400 M252.128 329.500 C 257.368 329.563,265.828 329.563,270.928 329.500 C 276.027 329.436,271.740 329.385,261.400 329.385 C 251.060 329.385,246.887 329.437,252.128 329.500 M364.708 347.208 L 364.816 364.816 347.208 364.708 C 337.524 364.649,329.600 364.737,329.600 364.904 C 329.600 365.071,337.565 365.161,347.300 365.104 L 365.000 365.000 365.104 347.300 C 365.161 337.565,365.071 329.600,364.904 329.600 C 364.737 329.600,364.649 337.524,364.708 347.208 M240.000 342.913 C 239.670 343.181,239.137 343.760,238.815 344.200 C 238.494 344.640,238.809 344.471,239.515 343.825 C 240.667 342.772,241.000 342.375,240.700 342.413 C 240.645 342.420,240.330 342.645,240.000 342.913 " stroke="none" fill="#554346" fill-rule="evenodd"></path><path id="path5" d="M332.816 4.981 C 332.551 5.300,332.418 5.885,332.521 6.281 C 332.670 6.857,332.716 6.826,332.754 6.120 C 332.779 5.636,333.115 5.056,333.500 4.832 C 333.885 4.608,333.997 4.419,333.749 4.412 C 333.501 4.405,333.081 4.661,332.816 4.981 M350.383 6.292 C 350.964 8.232,351.539 9.515,351.940 9.763 C 352.154 9.895,351.985 9.291,351.565 8.421 C 351.144 7.551,350.800 6.571,350.800 6.243 C 350.800 5.915,350.632 5.543,350.426 5.416 C 350.198 5.275,350.181 5.619,350.383 6.292 M331.672 8.201 C 331.422 8.751,330.628 9.561,329.908 9.999 C 329.122 10.478,328.863 10.798,329.259 10.799 C 329.934 10.800,332.400 8.279,332.400 7.586 C 332.400 6.940,332.151 7.150,331.672 8.201 M272.000 11.200 L 216.600 11.404 271.800 11.474 C 302.160 11.512,327.360 11.389,327.800 11.200 C 328.240 11.011,328.330 10.888,328.000 10.926 C 327.670 10.964,302.470 11.088,272.000 11.200 M355.512 11.272 C 355.890 11.421,362.410 11.520,370.000 11.491 C 377.590 11.463,382.450 11.387,380.800 11.324 C 373.933 11.060,354.877 11.021,355.512 11.272 M213.836 13.163 C 212.996 14.023,212.405 14.968,212.523 15.263 C 212.682 15.662,212.745 15.639,212.768 15.175 C 212.802 14.510,214.470 12.800,215.800 12.066 C 216.388 11.741,216.436 11.621,215.981 11.612 C 215.641 11.605,214.675 12.304,213.836 13.163 M388.592 52.800 C 388.592 72.930,388.640 81.165,388.700 71.100 C 388.759 61.035,388.759 44.565,388.700 34.500 C 388.640 24.435,388.592 32.670,388.592 52.800 M242.938 23.906 C 242.684 24.068,250.992 24.200,261.400 24.200 C 271.808 24.200,280.116 24.068,279.862 23.906 C 279.258 23.522,243.542 23.522,242.938 23.906 M326.315 23.928 C 325.938 24.078,335.326 24.200,347.177 24.200 C 359.028 24.200,368.516 24.068,368.262 23.906 C 367.682 23.537,327.247 23.558,326.315 23.928 M239.606 25.794 C 238.863 26.561,238.332 27.250,238.427 27.325 C 238.522 27.400,239.206 26.773,239.946 25.931 C 241.629 24.018,241.412 23.931,239.606 25.794 M373.200 26.600 C 373.946 27.370,374.647 28.000,374.757 28.000 C 374.867 28.000,374.346 27.370,373.600 26.600 C 372.854 25.830,372.153 25.200,372.043 25.200 C 371.933 25.200,372.454 25.830,373.200 26.600 M284.200 29.400 C 284.200 30.348,284.332 30.916,284.494 30.662 C 284.656 30.408,284.788 29.840,284.788 29.400 C 284.788 28.960,284.656 28.392,284.494 28.138 C 284.332 27.884,284.200 28.452,284.200 29.400 M238.409 31.033 C 238.421 31.515,239.593 32.888,240.600 33.600 C 241.040 33.911,240.770 33.455,240.000 32.587 C 239.230 31.719,238.555 30.932,238.500 30.838 C 238.445 30.744,238.404 30.832,238.409 31.033 M375.800 52.823 C 375.800 64.674,375.922 74.062,376.072 73.685 C 376.442 72.753,376.463 32.318,376.094 31.738 C 375.932 31.484,375.800 40.972,375.800 52.823 M318.586 52.800 C 318.586 64.570,318.637 69.385,318.700 63.500 C 318.762 57.615,318.762 47.985,318.700 42.100 C 318.637 36.215,318.586 41.030,318.586 52.800 M242.315 34.472 C 242.692 34.621,251.280 34.744,261.400 34.744 C 271.520 34.744,280.108 34.621,280.485 34.472 C 280.862 34.322,272.274 34.200,261.400 34.200 C 250.526 34.200,241.938 34.322,242.315 34.472 M329.200 52.800 L 329.200 70.800 347.200 70.800 C 357.100 70.800,365.200 70.665,365.200 70.500 C 365.200 70.335,357.187 70.249,347.392 70.308 L 329.584 70.416 329.692 52.608 C 329.751 42.813,329.665 34.800,329.500 34.800 C 329.335 34.800,329.200 42.900,329.200 52.800 M242.315 47.528 C 241.938 47.678,253.306 47.800,267.576 47.800 C 281.847 47.800,293.316 47.668,293.062 47.506 C 292.481 47.137,243.247 47.158,242.315 47.528 M239.631 49.231 C 238.954 49.908,238.400 50.658,238.400 50.897 C 238.400 51.137,238.445 51.256,238.500 51.162 C 238.555 51.068,239.220 50.318,239.978 49.496 C 241.636 47.697,241.369 47.493,239.631 49.231 M296.255 49.800 C 297.180 51.379,297.200 51.403,297.200 50.911 C 297.200 50.679,296.829 50.064,296.376 49.544 L 295.553 48.600 296.255 49.800 M297.293 52.800 C 297.293 53.570,297.375 53.885,297.476 53.500 C 297.576 53.115,297.576 52.485,297.476 52.100 C 297.375 51.715,297.293 52.030,297.293 52.800 M238.400 54.655 C 238.400 54.868,239.075 55.663,239.900 56.422 L 241.400 57.800 240.000 56.204 C 239.230 55.327,238.555 54.532,238.500 54.438 C 238.445 54.344,238.400 54.441,238.400 54.655 M242.938 58.094 C 243.192 58.256,254.470 58.388,268.000 58.388 C 281.530 58.388,292.808 58.256,293.062 58.094 C 293.316 57.932,282.038 57.800,268.000 57.800 C 253.962 57.800,242.685 57.932,242.938 58.094 M255.129 71.100 C 262.240 71.161,273.760 71.161,280.729 71.100 C 287.698 71.038,281.880 70.988,267.800 70.988 C 253.720 70.988,248.018 71.039,255.129 71.100 M239.778 72.595 C 238.941 73.361,238.345 74.078,238.454 74.187 C 238.563 74.296,239.352 73.669,240.207 72.793 C 242.125 70.829,241.846 70.700,239.778 72.595 M293.800 71.600 C 293.936 71.820,294.250 72.000,294.498 72.000 C 294.746 72.000,295.329 72.315,295.793 72.700 C 296.258 73.085,296.132 72.905,295.513 72.300 C 294.429 71.241,293.290 70.776,293.800 71.600 M297.068 75.400 C 297.371 77.377,297.602 77.714,297.594 76.167 C 297.591 75.525,297.416 74.730,297.205 74.400 C 296.945 73.991,296.901 74.310,297.068 75.400 M318.818 74.926 C 318.764 77.140,322.865 81.236,325.080 81.182 C 325.476 81.173,325.093 80.913,324.230 80.605 C 322.221 79.890,320.110 77.779,319.395 75.770 C 319.087 74.907,318.827 74.527,318.818 74.926 M296.318 78.814 C 295.951 79.454,295.054 80.250,294.325 80.584 C 293.413 81.003,293.312 81.116,294.000 80.949 C 295.135 80.673,296.288 79.757,296.869 78.670 C 297.529 77.438,297.033 77.567,296.318 78.814 M239.127 79.051 C 240.933 81.686,240.043 81.610,267.860 81.507 L 293.000 81.414 267.319 81.207 L 241.638 81.000 239.954 79.400 C 238.428 77.950,238.350 77.917,239.127 79.051 M336.500 81.500 C 342.385 81.562,352.015 81.562,357.900 81.500 C 363.785 81.437,358.970 81.386,347.200 81.386 C 335.430 81.386,330.615 81.437,336.500 81.500 M212.412 90.453 C 212.399 91.145,215.307 94.000,216.025 94.000 C 216.257 94.000,216.336 93.820,216.200 93.600 C 216.064 93.380,215.776 93.200,215.559 93.200 C 215.054 93.200,213.434 91.637,212.864 90.600 C 212.514 89.963,212.422 89.933,212.412 90.453 M386.230 92.424 C 385.807 92.851,385.644 93.200,385.868 93.200 C 386.092 93.200,386.602 92.840,387.000 92.400 C 387.928 91.374,387.250 91.395,386.230 92.424 M258.500 94.300 C 281.325 94.357,318.675 94.357,341.500 94.300 C 364.325 94.243,345.650 94.196,300.000 94.196 C 254.350 94.196,235.675 94.243,258.500 94.300 M61.000 133.608 C 67.678 133.991,70.906 135.299,75.092 139.318 C 76.471 140.643,77.600 141.886,77.600 142.080 C 77.600 142.274,77.960 142.920,78.399 143.516 C 79.429 144.913,80.800 148.670,80.800 150.098 L 80.800 151.207 60.500 151.104 L 40.200 151.000 40.333 149.600 C 40.433 148.544,40.351 148.311,40.001 148.651 C 39.746 148.899,39.597 149.619,39.669 150.251 L 39.800 151.400 60.551 151.504 L 81.302 151.607 81.114 149.641 C 80.241 140.560,70.716 133.093,60.227 133.267 L 56.200 133.334 61.000 133.608 M54.200 134.000 C 53.696 134.217,53.622 134.344,54.000 134.344 C 54.330 134.344,54.960 134.189,55.400 134.000 C 55.904 133.783,55.978 133.656,55.600 133.656 C 55.270 133.656,54.640 133.811,54.200 134.000 M51.331 134.958 C 50.632 135.212,49.718 135.731,49.299 136.110 C 48.880 136.490,48.366 136.800,48.156 136.800 C 46.602 136.800,40.400 145.409,40.400 147.566 C 40.400 147.902,41.044 146.834,41.830 145.193 C 44.154 140.343,46.703 137.770,51.582 135.346 C 53.525 134.380,53.408 134.201,51.331 134.958 M216.141 158.797 C 215.668 158.988,215.170 159.324,215.034 159.545 C 214.831 159.873,216.995 159.014,217.567 158.538 C 217.867 158.289,217.019 158.443,216.141 158.797 M39.470 161.863 C 39.322 162.012,39.238 165.028,39.285 168.567 L 39.369 175.000 39.585 168.600 L 39.800 162.200 60.500 162.096 L 81.200 161.993 81.200 169.268 C 81.200 176.024,80.961 178.095,79.951 180.095 C 79.758 180.477,79.598 181.017,79.596 181.295 C 79.574 184.268,71.624 190.814,66.322 192.226 C 61.832 193.421,51.626 192.414,50.867 190.701 C 50.793 190.535,50.343 190.404,49.867 190.409 C 49.197 190.416,49.318 190.561,50.400 191.045 C 51.170 191.390,52.113 191.836,52.495 192.036 C 52.877 192.236,53.541 192.400,53.971 192.400 C 54.401 192.400,54.864 192.580,55.000 192.800 C 55.821 194.129,68.599 192.741,70.600 191.106 C 70.820 190.926,71.900 190.201,73.000 189.495 C 74.953 188.241,76.800 186.650,76.800 186.223 C 76.800 186.014,77.752 184.785,78.655 183.829 C 80.880 181.473,82.062 175.658,81.914 167.800 L 81.800 161.800 60.770 161.696 C 49.204 161.640,39.619 161.715,39.470 161.863 M388.592 200.000 C 388.592 220.130,388.640 228.365,388.700 218.300 C 388.759 208.235,388.759 191.765,388.700 181.700 C 388.640 171.635,388.592 179.870,388.592 200.000 M247.200 171.486 C 260.625 171.760,281.482 171.772,281.063 171.506 C 280.808 171.344,271.870 171.249,261.200 171.294 C 250.530 171.339,244.230 171.425,247.200 171.486 M324.715 171.528 C 324.338 171.678,334.456 171.800,347.200 171.800 C 359.944 171.800,370.062 171.678,369.685 171.528 C 369.308 171.379,359.190 171.256,347.200 171.256 C 335.210 171.256,325.092 171.379,324.715 171.528 M239.965 172.513 C 239.160 173.131,238.262 174.795,238.568 175.101 C 238.695 175.229,238.800 175.137,238.800 174.897 C 238.800 174.658,239.266 173.908,239.836 173.231 C 240.944 171.913,240.976 171.737,239.965 172.513 M320.934 173.702 C 319.878 174.884,318.694 177.509,318.941 178.118 C 319.083 178.468,319.145 178.457,319.168 178.078 C 319.231 177.046,320.817 174.030,321.498 173.649 C 321.880 173.435,322.091 173.157,321.965 173.032 C 321.839 172.906,321.375 173.207,320.934 173.702 M373.194 173.847 C 373.741 174.481,374.339 175.180,374.525 175.400 C 374.710 175.620,374.655 175.340,374.402 174.778 C 374.150 174.217,373.551 173.518,373.072 173.226 C 372.272 172.739,372.282 172.790,373.194 173.847 M284.171 176.545 C 284.171 178.469,284.236 178.693,284.532 177.803 C 284.747 177.160,284.747 176.210,284.532 175.463 C 284.216 174.359,284.171 174.491,284.171 176.545 M39.654 176.676 C 39.625 177.598,39.780 178.464,40.000 178.600 C 40.220 178.736,40.400 179.180,40.400 179.586 C 40.400 180.480,42.127 183.819,42.308 183.275 C 42.379 183.063,42.105 182.285,41.700 181.545 C 40.928 180.136,40.119 177.697,39.861 176.000 C 39.774 175.428,39.686 175.717,39.654 176.676 M238.400 178.440 C 238.400 179.067,241.014 181.600,241.660 181.599 C 241.957 181.598,241.611 181.238,240.890 180.798 C 240.170 180.359,239.409 179.550,239.200 179.000 C 238.805 177.961,238.400 177.678,238.400 178.440 M375.800 200.000 C 375.800 211.864,375.922 221.262,376.072 220.885 C 376.221 220.508,376.344 211.110,376.344 200.000 C 376.344 188.890,376.221 179.492,376.072 179.115 C 375.922 178.738,375.800 188.136,375.800 200.000 M318.586 200.000 C 318.586 211.770,318.637 216.585,318.700 210.700 C 318.762 204.815,318.762 195.185,318.700 189.300 C 318.637 183.415,318.586 188.230,318.586 200.000 M283.380 179.632 C 283.233 179.870,282.547 180.410,281.856 180.831 C 281.165 181.252,280.822 181.598,281.094 181.599 C 281.606 181.600,284.413 179.232,283.924 179.212 C 283.772 179.205,283.527 179.395,283.380 179.632 M251.928 181.900 C 257.278 181.963,265.918 181.963,271.128 181.900 C 276.337 181.836,271.960 181.785,261.400 181.785 C 250.840 181.785,246.577 181.837,251.928 181.900 M347.179 181.898 C 360.442 181.982,364.641 182.126,364.910 182.504 C 365.167 182.868,365.217 182.840,365.097 182.400 C 364.955 181.878,362.638 181.799,347.367 181.793 L 329.800 181.787 347.179 181.898 M329.384 200.000 C 329.384 210.010,329.436 214.105,329.500 209.100 C 329.563 204.095,329.563 195.905,329.500 190.900 C 329.436 185.895,329.384 189.990,329.384 200.000 M42.800 184.118 C 42.800 184.965,47.860 190.000,48.711 190.000 C 49.204 190.000,49.119 189.827,48.389 189.339 C 46.788 188.268,45.177 186.708,43.948 185.040 C 43.283 184.136,42.800 183.748,42.800 184.118 M295.469 196.362 C 295.947 196.808,296.458 197.553,296.605 198.017 C 296.753 198.481,296.960 198.773,297.066 198.667 C 297.413 198.321,296.048 196.104,295.315 195.824 C 294.747 195.607,294.778 195.717,295.469 196.362 M38.600 199.181 C 42.700 199.321,45.323 199.585,45.900 199.914 C 46.395 200.197,46.800 200.336,46.800 200.224 C 46.800 199.234,44.090 198.805,38.320 198.881 L 32.200 198.961 38.600 199.181 M76.136 199.106 C 75.881 199.268,78.041 199.351,80.936 199.292 C 89.137 199.124,90.020 198.946,83.000 198.876 C 79.480 198.841,76.391 198.944,76.136 199.106 M91.400 199.855 C 92.500 200.169,94.165 200.778,95.100 201.208 C 96.035 201.638,96.800 201.907,96.800 201.805 C 96.800 201.446,94.173 200.268,92.200 199.742 C 89.535 199.032,88.855 199.128,91.400 199.855 M296.605 201.983 C 296.458 202.447,295.947 203.192,295.469 203.638 C 294.778 204.283,294.747 204.393,295.315 204.176 C 296.048 203.896,297.413 201.679,297.066 201.333 C 296.960 201.227,296.753 201.519,296.605 201.983 M54.833 202.944 C 54.925 203.023,55.540 203.208,56.200 203.356 C 57.076 203.552,57.238 203.515,56.800 203.218 C 56.260 202.853,54.432 202.598,54.833 202.944 M64.200 203.200 C 63.696 203.417,63.622 203.544,64.000 203.544 C 64.330 203.544,64.960 203.389,65.400 203.200 C 65.904 202.983,65.978 202.856,65.600 202.856 C 65.270 202.856,64.640 203.011,64.200 203.200 M21.000 204.086 C 20.017 204.654,19.053 205.588,19.252 205.780 C 19.334 205.858,20.023 205.400,20.785 204.761 C 22.250 203.533,22.316 203.327,21.000 204.086 M102.162 206.100 C 103.503 207.475,104.660 208.464,104.734 208.298 C 104.867 207.997,100.418 203.626,99.962 203.609 C 99.831 203.604,100.821 204.725,102.162 206.100 M17.179 207.659 C 16.861 208.117,16.272 208.922,15.871 209.446 C 15.470 209.971,15.230 210.400,15.337 210.400 C 15.659 210.400,18.110 207.177,17.927 206.994 C 17.835 206.901,17.498 207.200,17.179 207.659 M105.481 210.163 C 105.877 210.693,106.259 210.964,106.332 210.767 C 106.405 210.569,106.193 210.136,105.861 209.804 C 104.923 208.865,104.683 209.093,105.481 210.163 M347.400 218.000 L 329.800 218.213 347.276 218.306 C 358.598 218.367,364.840 218.259,365.000 218.000 C 365.136 217.780,365.192 217.642,365.124 217.694 C 365.056 217.745,357.080 217.883,347.400 218.000 M254.900 218.300 C 261.885 218.361,273.315 218.361,280.300 218.300 C 287.285 218.239,281.570 218.188,267.600 218.188 C 253.630 218.188,247.915 218.239,254.900 218.300 M240.251 219.231 C 239.099 220.138,238.205 221.539,238.556 221.890 C 238.678 222.011,238.958 221.636,239.179 221.056 C 239.400 220.475,240.170 219.641,240.890 219.202 C 241.611 218.762,241.999 218.402,241.754 218.401 C 241.509 218.401,240.832 218.774,240.251 219.231 M294.375 219.131 C 296.785 220.423,297.750 223.136,296.590 225.360 C 296.258 225.997,296.055 226.589,296.140 226.674 C 296.609 227.142,297.649 223.788,297.418 222.555 C 297.133 221.036,294.770 218.400,293.693 218.400 C 293.301 218.400,293.591 218.710,294.375 219.131 M11.380 234.800 C 11.380 242.610,11.434 245.805,11.499 241.900 C 11.565 237.995,11.565 231.605,11.499 227.700 C 11.434 223.795,11.380 226.990,11.380 234.800 M109.800 235.038 C 109.800 242.387,109.935 248.400,110.100 248.400 C 110.265 248.400,110.400 242.471,110.400 235.224 C 110.400 227.977,110.265 221.964,110.100 221.862 C 109.935 221.760,109.800 227.689,109.800 235.038 M318.832 221.922 C 318.779 222.784,320.279 225.766,321.169 226.572 C 321.626 226.986,322.000 227.135,322.000 226.905 C 322.000 226.674,321.739 226.385,321.419 226.263 C 320.923 226.072,319.878 224.165,319.083 222.000 C 318.934 221.594,318.853 221.569,318.832 221.922 M373.461 225.828 C 372.595 226.913,372.516 227.134,373.132 226.750 C 373.776 226.347,375.068 224.400,374.691 224.400 C 374.641 224.400,374.087 225.043,373.461 225.828 M238.412 224.881 C 238.381 225.590,239.339 227.093,240.128 227.574 L 241.000 228.105 240.155 227.153 C 239.690 226.629,239.110 225.840,238.867 225.400 C 238.623 224.960,238.419 224.727,238.412 224.881 M40.800 225.600 C 40.005 226.114,41.004 226.114,42.200 225.600 L 43.000 225.256 42.200 225.234 C 41.760 225.222,41.130 225.387,40.800 225.600 M79.000 225.600 C 80.101 226.073,80.492 226.073,80.200 225.600 C 80.064 225.380,79.558 225.213,79.076 225.228 C 78.231 225.255,78.229 225.269,79.000 225.600 M294.460 227.700 C 294.075 228.085,287.986 228.247,267.880 228.406 L 241.800 228.611 267.520 228.706 C 293.452 228.801,295.600 228.700,295.600 227.390 C 295.600 227.028,294.957 227.203,294.460 227.700 M324.715 228.472 C 325.092 228.621,335.210 228.744,347.200 228.744 C 359.190 228.744,369.308 228.621,369.685 228.472 C 370.062 228.322,359.944 228.200,347.200 228.200 C 334.456 228.200,324.338 228.322,324.715 228.472 M42.543 236.155 C 41.210 236.895,40.399 237.655,40.413 238.149 C 40.421 238.397,40.736 238.240,41.113 237.800 C 42.610 236.056,43.220 236.000,60.760 236.000 L 77.482 236.000 78.841 236.916 L 80.200 237.831 80.308 245.716 L 80.417 253.600 60.642 253.600 C 45.196 253.600,40.822 253.491,40.665 253.100 C 40.544 252.801,40.450 252.882,40.432 253.300 C 40.402 253.958,41.617 254.000,60.600 254.000 L 80.800 254.000 80.800 246.174 C 80.800 237.580,80.691 237.099,78.537 236.199 C 76.653 235.412,43.952 235.372,42.543 236.155 M29.400 238.400 C 29.248 239.091,29.214 239.747,29.324 239.857 C 29.434 239.967,29.648 239.491,29.800 238.800 C 29.952 238.109,29.986 237.453,29.876 237.343 C 29.766 237.233,29.552 237.709,29.400 238.400 M91.278 246.100 C 91.235 250.445,91.335 254.000,91.500 254.001 C 91.665 254.001,91.753 251.616,91.696 248.701 C 91.507 239.033,91.358 238.104,91.278 246.100 M215.200 240.540 C 215.530 240.856,216.250 241.246,216.800 241.407 C 218.067 241.778,217.788 241.511,216.000 240.644 C 214.984 240.152,214.765 240.123,215.200 240.540 M13.003 251.556 C 13.835 252.555,16.565 253.990,17.600 253.973 C 17.930 253.967,17.320 253.619,16.245 253.199 C 15.169 252.779,13.820 252.022,13.247 251.518 L 12.206 250.600 13.003 251.556 M107.293 252.033 C 106.575 252.675,106.178 253.200,106.412 253.200 C 106.881 253.200,108.970 251.236,108.742 251.009 C 108.664 250.930,108.012 251.391,107.293 252.033 M258.500 305.900 C 281.325 305.957,318.675 305.957,341.500 305.900 C 364.325 305.843,345.650 305.796,300.000 305.796 C 254.350 305.796,235.675 305.843,258.500 305.900 M214.001 307.447 C 213.121 308.242,212.405 309.187,212.412 309.547 C 212.422 310.067,212.514 310.037,212.864 309.400 C 213.434 308.363,215.054 306.800,215.559 306.800 C 215.776 306.800,216.064 306.620,216.200 306.400 C 216.760 305.495,215.496 306.096,214.001 307.447 M386.308 307.600 C 386.780 308.040,387.292 308.400,387.445 308.400 C 387.599 308.400,387.398 308.040,387.000 307.600 C 386.602 307.160,386.090 306.800,385.863 306.800 C 385.635 306.800,385.836 307.160,386.308 307.600 M388.592 347.200 C 388.592 367.330,388.640 375.565,388.700 365.500 C 388.759 355.435,388.759 338.965,388.700 328.900 C 388.640 318.835,388.592 327.070,388.592 347.200 M241.287 319.065 C 240.565 319.421,239.591 320.272,239.122 320.956 C 238.355 322.076,238.439 322.040,239.954 320.600 L 241.638 319.000 260.919 318.791 L 280.200 318.581 261.400 318.500 C 244.781 318.428,242.448 318.493,241.287 319.065 M336.500 318.700 C 342.385 318.762,352.015 318.762,357.900 318.700 C 363.785 318.637,358.970 318.586,347.200 318.586 C 335.430 318.586,330.615 318.637,336.500 318.700 M281.449 319.375 C 282.135 319.674,282.990 320.337,283.349 320.848 C 283.707 321.360,284.000 321.574,284.000 321.325 C 284.000 320.672,281.661 318.797,280.869 318.816 C 280.501 318.824,280.762 319.076,281.449 319.375 M323.400 319.265 C 321.184 320.485,318.780 323.536,318.818 325.080 C 318.827 325.476,319.087 325.093,319.395 324.230 C 319.702 323.366,320.563 322.051,321.307 321.307 C 322.051 320.563,323.366 319.702,324.230 319.395 C 325.097 319.085,325.442 318.833,325.000 318.830 C 324.560 318.827,323.840 319.023,323.400 319.265 M284.200 323.800 C 284.200 324.748,284.332 325.316,284.494 325.062 C 284.656 324.808,284.788 324.240,284.788 323.800 C 284.788 323.360,284.656 322.792,284.494 322.538 C 284.332 322.284,284.200 322.852,284.200 323.800 M238.400 325.817 C 238.400 326.109,240.005 327.705,241.000 328.402 C 241.440 328.710,241.088 328.206,240.219 327.281 C 238.639 325.601,238.400 325.409,238.400 325.817 M375.800 347.177 C 375.800 359.028,375.932 368.516,376.094 368.262 C 376.463 367.682,376.442 327.247,376.072 326.315 C 375.922 325.938,375.800 335.326,375.800 347.177 M283.463 326.580 C 283.333 326.919,282.636 327.556,281.913 327.996 C 281.191 328.437,280.822 328.798,281.094 328.799 C 281.758 328.801,284.266 326.532,283.949 326.216 C 283.811 326.078,283.593 326.242,283.463 326.580 M318.586 347.200 C 318.586 358.970,318.637 363.785,318.700 357.900 C 318.762 352.015,318.762 342.385,318.700 336.500 C 318.637 330.615,318.586 335.430,318.586 347.200 M251.928 329.100 C 257.278 329.163,265.918 329.163,271.128 329.100 C 276.337 329.036,271.960 328.985,261.400 328.985 C 250.840 328.985,246.577 329.037,251.928 329.100 M328.985 329.296 C 328.878 329.573,328.838 337.810,328.896 347.600 L 329.000 365.400 347.304 365.504 L 365.608 365.608 365.504 347.304 L 365.400 329.000 347.289 328.896 C 333.014 328.814,329.137 328.899,328.985 329.296 M365.104 347.300 L 365.000 365.000 347.300 365.104 L 329.600 365.208 329.600 347.404 L 329.600 329.600 347.404 329.600 L 365.208 329.600 365.104 347.300 M242.938 341.906 C 242.685 342.068,253.962 342.200,268.000 342.200 C 282.038 342.200,293.316 342.068,293.062 341.906 C 292.808 341.744,281.530 341.612,268.000 341.612 C 254.470 341.612,243.192 341.744,242.938 341.906 M239.606 343.794 C 238.863 344.561,238.332 345.250,238.427 345.325 C 238.522 345.400,239.206 344.773,239.946 343.931 C 241.629 342.018,241.412 341.931,239.606 343.794 M297.293 347.200 C 297.293 347.970,297.375 348.285,297.476 347.900 C 297.576 347.515,297.576 346.885,297.476 346.500 C 297.375 346.115,297.293 346.430,297.293 347.200 M238.409 349.033 C 238.421 349.515,239.593 350.888,240.600 351.600 C 241.040 351.911,240.770 351.455,240.000 350.587 C 239.230 349.719,238.555 348.932,238.500 348.838 C 238.445 348.744,238.404 348.832,238.409 349.033 M296.294 350.103 L 295.588 351.400 296.394 350.456 C 297.080 349.652,297.446 348.794,297.100 348.803 C 297.045 348.804,296.682 349.389,296.294 350.103 M242.315 352.472 C 243.247 352.842,292.481 352.863,293.062 352.494 C 293.316 352.332,281.847 352.200,267.576 352.200 C 253.306 352.200,241.938 352.322,242.315 352.472 M242.315 365.528 C 241.938 365.678,253.306 365.800,267.576 365.800 C 281.847 365.800,293.316 365.668,293.062 365.506 C 292.481 365.137,243.247 365.158,242.315 365.528 M239.631 367.231 C 238.954 367.908,238.400 368.658,238.400 368.897 C 238.400 369.137,238.445 369.256,238.500 369.162 C 238.555 369.068,239.220 368.318,239.978 367.496 C 241.636 365.697,241.369 365.493,239.631 367.231 M294.697 366.412 C 295.191 366.610,295.955 367.364,296.396 368.086 C 296.837 368.809,297.198 369.189,297.199 368.931 C 297.201 368.151,295.176 365.998,294.464 366.025 C 293.996 366.043,294.065 366.157,294.697 366.412 M297.293 370.800 C 297.293 371.570,297.375 371.885,297.476 371.500 C 297.576 371.115,297.576 370.485,297.476 370.100 C 297.375 369.715,297.293 370.030,297.293 370.800 M373.178 373.500 L 371.800 375.000 373.300 373.622 C 374.696 372.338,374.984 372.000,374.678 372.000 C 374.612 372.000,373.937 372.675,373.178 373.500 M238.400 372.655 C 238.400 372.868,239.075 373.663,239.900 374.422 L 241.400 375.800 240.000 374.204 C 239.230 373.327,238.555 372.532,238.500 372.438 C 238.445 372.344,238.400 372.441,238.400 372.655 M242.938 376.094 C 243.192 376.256,254.380 376.388,267.800 376.388 C 281.220 376.388,292.408 376.256,292.662 376.094 C 292.916 375.932,281.728 375.800,267.800 375.800 C 253.872 375.800,242.684 375.932,242.938 376.094 M326.315 376.072 C 326.692 376.221,336.090 376.344,347.200 376.344 C 358.310 376.344,367.708 376.221,368.085 376.072 C 368.462 375.922,359.064 375.800,347.200 375.800 C 335.336 375.800,325.938 375.922,326.315 376.072 M212.432 384.819 C 212.393 385.582,215.216 388.401,216.017 388.399 C 216.338 388.398,216.060 388.063,215.400 387.656 C 214.084 386.843,213.026 385.731,212.684 384.800 C 212.492 384.279,212.459 384.281,212.432 384.819 M219.200 388.673 C 225.060 388.936,247.125 388.980,246.488 388.728 C 246.109 388.579,239.230 388.479,231.200 388.506 C 223.170 388.534,217.770 388.609,219.200 388.673 M273.115 388.728 C 272.494 388.974,339.616 388.951,371.000 388.693 C 378.040 388.636,359.050 388.559,328.800 388.522 C 298.550 388.486,273.492 388.579,273.115 388.728 M249.451 390.400 C 250.139 391.170,250.800 392.070,250.919 392.400 C 251.108 392.919,251.141 392.916,251.168 392.378 C 251.186 392.037,250.525 391.137,249.700 390.378 L 248.200 389.000 249.451 390.400 M270.031 390.236 C 269.354 390.805,268.800 391.459,268.800 391.690 C 268.800 391.920,269.173 391.634,269.629 391.054 C 270.085 390.474,270.704 390.000,271.005 390.000 C 271.306 390.000,271.664 389.820,271.800 389.600 C 272.270 388.840,271.257 389.204,270.031 390.236 M251.254 393.820 C 251.200 394.634,251.866 395.600,252.480 395.600 C 252.656 395.600,252.800 395.420,252.800 395.200 C 252.800 394.980,252.543 394.800,252.228 394.800 C 251.913 394.800,251.578 394.395,251.482 393.900 C 251.326 393.086,251.304 393.079,251.254 393.820 " stroke="none" fill="#242323" fill-rule="evenodd"></path><path id="path6" d="M350.000 7.115 C 350.000 7.805,350.891 9.600,351.234 9.600 C 351.401 9.600,351.255 9.015,350.908 8.300 C 350.141 6.720,350.000 6.536,350.000 7.115 M332.400 8.004 C 332.400 8.744,330.218 10.611,328.772 11.108 C 327.669 11.488,314.773 11.600,272.226 11.600 L 217.109 11.600 215.602 12.447 C 212.173 14.374,212.400 11.501,212.400 52.931 C 212.400 73.073,212.535 89.636,212.700 89.738 C 212.865 89.840,212.955 73.336,212.899 53.062 C 212.786 11.679,212.576 14.700,215.696 12.798 C 216.981 12.015,217.825 12.003,272.154 12.001 C 313.176 12.000,327.708 11.880,328.873 11.531 C 330.722 10.977,333.924 7.600,332.600 7.600 C 332.490 7.600,332.400 7.782,332.400 8.004 M352.211 10.546 C 352.645 10.846,353.450 11.213,354.000 11.360 C 354.575 11.515,354.332 11.282,353.429 10.814 C 351.618 9.876,351.068 9.755,352.211 10.546 M369.618 11.990 C 385.799 12.222,385.546 12.180,387.218 14.922 C 387.975 16.164,387.997 17.227,387.999 52.738 L 388.000 89.277 387.120 90.538 C 386.636 91.232,386.051 91.923,385.820 92.073 C 384.278 93.074,383.815 93.632,385.001 93.060 C 386.240 92.463,387.034 91.654,387.900 90.105 C 388.923 88.274,388.593 16.653,387.553 14.802 C 385.765 11.620,385.576 11.588,369.346 11.690 L 355.000 11.781 369.618 11.990 M240.842 24.122 C 238.057 25.546,236.913 28.535,238.027 31.474 C 238.508 32.746,239.933 34.400,240.546 34.400 C 240.769 34.400,240.383 33.844,239.687 33.164 C 236.876 30.415,237.816 25.723,241.486 24.190 C 243.757 23.241,279.626 23.357,281.586 24.319 C 284.525 25.763,285.543 28.976,284.011 31.979 C 282.554 34.835,282.486 34.843,260.538 34.714 C 249.943 34.651,241.483 34.732,241.738 34.894 C 242.684 35.496,280.181 35.251,281.659 34.633 C 286.297 32.695,286.345 26.179,281.738 24.013 C 278.910 22.684,243.469 22.778,240.842 24.122 M324.597 23.748 C 320.806 25.173,317.900 28.629,318.028 31.560 C 318.043 31.912,318.391 31.210,318.799 30.000 C 320.888 23.816,321.862 23.600,347.601 23.600 C 378.708 23.600,376.400 21.270,376.400 52.667 C 376.400 78.091,376.186 79.047,370.000 81.236 C 368.505 81.766,368.227 81.950,369.132 81.811 C 372.486 81.298,375.185 78.758,376.285 75.080 C 377.001 72.688,377.016 32.841,376.303 30.106 C 375.614 27.466,372.534 24.386,369.894 23.697 C 367.325 23.027,326.393 23.073,324.597 23.748 M240.835 47.519 C 236.553 49.656,236.556 55.686,240.842 57.878 L 242.600 58.777 267.681 58.789 C 286.161 58.797,293.057 58.675,293.881 58.325 C 295.197 57.767,297.602 55.628,297.596 55.022 C 297.593 54.790,297.127 55.190,296.559 55.910 C 294.549 58.461,295.248 58.400,267.800 58.400 C 247.252 58.400,242.662 58.301,241.549 57.835 C 237.134 55.986,236.780 50.043,240.963 48.018 C 242.610 47.221,243.288 47.200,267.946 47.200 C 295.672 47.200,294.431 47.095,296.552 49.616 C 297.129 50.301,297.600 50.700,297.600 50.503 C 297.600 49.879,295.446 47.791,294.281 47.285 C 292.296 46.424,242.594 46.642,240.835 47.519 M297.709 52.800 C 297.709 53.790,297.787 54.195,297.882 53.700 C 297.978 53.205,297.978 52.395,297.882 51.900 C 297.787 51.405,297.709 51.810,297.709 52.800 M268.000 70.404 C 294.136 70.629,294.337 70.644,296.088 72.448 C 297.163 73.554,297.437 74.247,297.730 76.600 C 297.859 77.634,297.888 77.590,297.940 76.280 C 298.042 73.691,296.315 71.351,293.640 70.455 C 292.670 70.130,285.232 70.027,267.640 70.094 L 243.000 70.188 268.000 70.404 M240.496 71.198 C 236.005 73.936,237.578 82.150,242.559 81.970 C 243.234 81.945,243.163 81.846,242.200 81.470 C 240.041 80.625,239.314 80.048,238.652 78.653 C 237.269 75.739,238.311 72.774,241.230 71.316 C 242.204 70.831,242.730 70.426,242.400 70.418 C 242.070 70.410,241.213 70.761,240.496 71.198 M318.040 74.000 C 317.963 77.416,322.596 82.047,326.000 81.955 C 326.686 81.937,326.434 81.772,325.198 81.431 C 321.745 80.477,319.552 78.447,318.795 75.505 C 318.173 73.083,318.066 72.871,318.040 74.000 M297.041 78.672 C 296.755 79.572,295.126 80.843,293.453 81.470 C 292.554 81.806,292.426 81.947,293.000 81.968 C 294.583 82.025,298.248 78.915,297.491 78.157 C 297.371 78.038,297.168 78.269,297.041 78.672 M213.200 90.667 C 213.200 91.214,215.251 93.036,216.200 93.333 C 216.816 93.526,216.770 93.424,216.001 92.892 C 215.451 92.511,214.596 91.769,214.101 91.242 C 213.605 90.714,213.200 90.456,213.200 90.667 M258.700 93.900 C 281.635 93.957,319.165 93.957,342.100 93.900 C 365.035 93.843,346.270 93.796,300.400 93.796 C 254.530 93.796,235.765 93.843,258.700 93.900 M300.800 158.797 C 393.194 159.025,384.829 158.719,387.024 161.950 L 388.000 163.386 388.000 200.000 L 388.000 236.614 387.050 238.013 C 386.527 238.782,385.672 239.613,385.150 239.858 C 384.627 240.103,383.750 240.509,383.200 240.760 C 382.227 241.204,382.233 241.210,383.400 240.977 C 384.060 240.845,385.185 240.292,385.900 239.748 C 388.552 237.731,388.400 240.141,388.400 200.000 C 388.400 159.858,388.551 162.260,385.900 160.260 C 383.368 158.348,385.846 158.399,300.000 158.499 L 218.600 158.594 300.800 158.797 M216.201 159.430 C 214.600 160.265,213.634 161.173,212.959 162.479 C 212.091 164.158,212.130 235.917,213.000 237.599 C 213.717 238.986,215.687 240.518,217.560 241.145 C 218.562 241.480,240.361 241.574,300.560 241.502 L 382.200 241.405 300.000 241.202 C 207.606 240.975,215.971 241.281,213.776 238.050 L 212.800 236.614 212.800 200.000 L 212.800 163.386 213.776 161.950 C 214.629 160.693,215.870 159.851,218.000 159.080 C 218.533 158.887,218.533 158.860,218.000 158.834 C 217.670 158.818,216.860 159.086,216.201 159.430 M261.344 171.100 C 280.455 171.203,281.333 171.240,282.394 171.996 C 285.474 174.189,285.489 178.936,282.422 180.989 C 281.774 181.422,281.314 181.847,281.399 181.932 C 281.484 182.017,282.107 181.693,282.783 181.212 C 286.071 178.871,286.014 174.377,282.663 171.821 L 281.324 170.800 261.362 170.896 L 241.400 170.992 261.344 171.100 M323.035 171.613 C 321.049 172.604,320.375 173.222,319.483 174.873 C 318.944 175.869,318.928 175.981,319.417 175.321 C 322.500 171.167,320.720 171.431,347.200 171.194 L 370.200 170.987 347.400 170.910 C 325.502 170.835,324.538 170.863,323.035 171.613 M239.426 172.431 C 236.524 174.979,237.872 182.008,241.260 181.999 C 241.557 181.998,241.246 181.659,240.568 181.246 C 237.558 179.410,237.189 174.856,239.860 172.500 C 240.670 171.785,241.220 171.200,241.081 171.200 C 240.942 171.200,240.197 171.754,239.426 172.431 M370.600 171.600 C 370.736 171.820,371.045 172.000,371.286 172.000 C 372.131 172.000,374.377 174.031,374.946 175.309 C 376.353 178.469,376.400 179.263,376.400 200.000 C 376.400 220.737,376.353 221.531,374.946 224.691 C 374.377 225.969,372.131 228.000,371.286 228.000 C 371.045 228.000,370.746 228.163,370.623 228.363 C 370.172 229.092,371.938 228.300,373.341 227.144 C 374.672 226.047,375.073 225.399,376.344 222.281 C 377.016 220.632,376.983 179.589,376.308 177.628 C 375.438 175.105,374.575 173.830,372.837 172.500 C 371.178 171.231,370.105 170.799,370.600 171.600 M318.200 177.600 C 318.048 178.291,318.014 178.947,318.124 179.057 C 318.234 179.167,318.448 178.691,318.600 178.000 C 318.752 177.309,318.786 176.653,318.676 176.543 C 318.566 176.433,318.352 176.909,318.200 177.600 M251.472 182.300 C 256.792 182.363,265.612 182.363,271.072 182.300 C 276.533 182.237,272.180 182.185,261.400 182.185 C 250.620 182.185,246.153 182.237,251.472 182.300 M239.453 195.827 C 236.397 198.883,237.984 205.653,241.740 205.584 C 242.460 205.571,242.404 205.482,241.400 205.035 C 239.099 204.013,238.213 202.613,238.213 200.000 C 238.213 197.387,239.099 195.987,241.400 194.965 C 242.404 194.518,242.460 194.429,241.740 194.416 C 241.267 194.407,240.238 195.042,239.453 195.827 M293.400 194.781 C 293.840 194.946,294.605 195.219,295.100 195.387 C 295.595 195.556,296.004 195.807,296.009 195.947 C 296.027 196.450,297.582 198.188,297.591 197.713 C 297.609 196.739,294.817 194.398,293.687 194.440 C 292.745 194.474,292.706 194.520,293.400 194.781 M297.709 200.000 C 297.709 200.990,297.787 201.395,297.882 200.900 C 297.978 200.405,297.978 199.595,297.882 199.100 C 297.787 198.605,297.709 199.010,297.709 200.000 M32.314 199.528 C 31.937 199.678,34.573 199.800,38.174 199.800 C 41.774 199.800,44.637 199.665,44.536 199.500 C 44.309 199.128,33.259 199.154,32.314 199.528 M74.600 200.434 C 72.094 201.872,72.538 201.949,75.290 200.554 C 77.576 199.396,88.000 199.278,91.200 200.374 C 100.022 203.395,106.004 209.681,108.735 218.800 L 109.155 220.200 108.933 218.600 C 108.052 212.242,101.979 204.804,94.800 201.291 C 89.769 198.829,78.249 198.340,74.600 200.434 M25.201 202.027 C 23.991 202.693,22.821 203.437,22.601 203.679 C 22.380 203.922,23.190 203.584,24.400 202.929 C 25.610 202.274,27.050 201.539,27.600 201.296 C 28.150 201.053,28.330 200.845,28.000 200.834 C 27.670 200.823,26.410 201.360,25.201 202.027 M46.800 200.995 C 46.800 201.261,49.590 202.407,50.149 202.370 C 50.397 202.354,49.880 202.007,49.000 201.600 C 47.309 200.817,46.800 200.677,46.800 200.995 M295.932 203.601 C 295.125 204.445,294.045 205.216,293.532 205.314 C 292.684 205.475,292.698 205.496,293.687 205.546 C 294.753 205.599,297.600 203.301,297.600 202.387 C 297.600 201.859,297.594 201.864,295.932 203.601 M51.200 202.800 C 51.530 203.013,52.250 203.173,52.800 203.154 L 53.800 203.120 52.800 202.800 C 51.258 202.306,50.436 202.306,51.200 202.800 M68.400 202.800 L 67.400 203.120 68.476 203.160 C 69.068 203.182,69.664 203.020,69.800 202.800 C 70.081 202.345,69.820 202.345,68.400 202.800 M54.600 203.592 C 55.357 203.925,59.121 204.163,58.767 203.856 C 58.675 203.776,57.520 203.605,56.200 203.476 C 54.676 203.326,54.092 203.369,54.600 203.592 M64.000 203.600 L 62.200 203.880 64.000 203.912 C 64.990 203.929,66.160 203.789,66.600 203.600 L 67.400 203.256 66.600 203.288 C 66.160 203.306,64.990 203.446,64.000 203.600 M18.993 206.593 C 17.526 208.059,16.403 209.336,16.496 209.430 C 16.590 209.523,17.867 208.400,19.333 206.933 C 20.800 205.467,21.923 204.190,21.830 204.096 C 21.736 204.003,20.459 205.126,18.993 206.593 M255.900 205.900 C 262.555 205.961,273.445 205.961,280.100 205.900 C 286.755 205.838,281.310 205.788,268.000 205.788 C 254.690 205.788,249.245 205.838,255.900 205.900 M15.128 211.500 C 14.210 212.909,13.106 215.543,12.056 218.828 C 11.286 221.240,11.433 247.942,12.225 249.530 C 12.992 251.068,15.507 253.200,16.554 253.200 C 17.032 253.200,16.655 252.846,15.563 252.270 C 12.053 250.418,12.014 250.226,12.007 234.520 C 11.999 219.166,12.107 218.322,14.747 213.100 C 16.489 209.653,16.580 209.274,15.128 211.500 M254.929 217.900 C 262.150 217.961,273.850 217.961,280.929 217.900 C 288.008 217.839,282.100 217.789,267.800 217.789 C 253.500 217.789,247.708 217.839,254.929 217.900 M239.657 219.013 C 237.088 221.175,236.978 225.420,239.435 227.577 C 241.316 229.229,241.673 229.141,239.853 227.474 C 237.209 225.052,237.576 220.579,240.568 218.754 C 241.246 218.341,241.589 218.002,241.331 218.001 C 241.073 218.001,240.320 218.456,239.657 219.013 M295.156 218.717 C 295.682 219.141,296.462 219.918,296.891 220.444 C 297.319 220.970,297.536 221.130,297.374 220.800 C 296.892 219.821,295.864 218.753,295.004 218.336 C 294.394 218.040,294.430 218.132,295.156 218.717 M109.295 234.146 C 109.166 253.063,109.087 253.200,98.265 253.200 L 92.400 253.200 92.386 246.100 C 92.372 239.303,92.009 236.313,90.868 233.600 C 90.347 232.362,88.806 230.077,88.803 230.538 C 88.801 230.724,89.129 231.354,89.530 231.938 C 91.420 234.686,92.000 238.140,92.000 246.647 L 92.000 253.654 98.531 253.527 C 109.744 253.309,109.685 253.413,109.514 234.200 L 109.389 220.200 109.295 234.146 M318.056 221.400 C 318.056 221.840,318.211 222.560,318.400 223.000 L 318.744 223.800 318.744 223.000 C 318.744 222.560,318.589 221.840,318.400 221.400 L 318.056 220.600 318.056 221.400 M297.714 223.400 C 297.717 224.500,297.795 224.903,297.887 224.295 C 297.979 223.686,297.977 222.786,297.882 222.295 C 297.787 221.803,297.711 222.300,297.714 223.400 M319.047 224.400 C 319.850 226.095,321.062 227.320,322.822 228.211 L 324.773 229.200 347.487 229.106 L 370.200 229.013 347.200 228.806 C 320.719 228.569,322.505 228.834,319.416 224.679 C 319.057 224.195,318.891 224.070,319.047 224.400 M40.262 225.100 C 40.160 225.265,49.010 225.350,59.929 225.289 C 74.113 225.210,80.126 225.309,80.990 225.636 C 83.617 226.630,84.845 227.280,86.684 228.647 L 88.600 230.071 87.194 228.736 C 85.550 227.174,84.052 226.292,81.584 225.433 C 79.663 224.764,40.664 224.450,40.262 225.100 M36.729 226.490 C 35.921 226.941,34.481 228.140,33.529 229.155 L 31.800 230.999 33.400 229.525 C 34.280 228.714,36.053 227.499,37.341 226.825 C 38.628 226.151,39.348 225.616,38.941 225.635 C 38.533 225.655,37.538 226.040,36.729 226.490 M295.900 227.233 L 294.400 228.800 267.900 228.897 L 241.400 228.994 267.758 229.100 L 294.117 229.206 295.453 228.187 C 296.188 227.626,296.978 226.815,297.209 226.384 C 297.774 225.327,297.644 225.412,295.900 227.233 M30.904 232.274 C 30.217 233.753,30.494 233.825,31.344 232.388 C 31.730 231.734,31.900 231.201,31.723 231.203 C 31.545 231.205,31.177 231.687,30.904 232.274 M29.049 237.015 C 28.912 237.373,28.836 241.116,28.880 245.333 L 28.960 253.000 29.180 244.800 C 29.417 235.954,29.419 236.052,29.049 237.015 M20.300 253.497 C 21.895 253.573,24.505 253.573,26.100 253.497 C 27.695 253.421,26.390 253.359,23.200 253.359 C 20.010 253.359,18.705 253.421,20.300 253.497 M258.700 306.300 C 281.635 306.357,319.165 306.357,342.100 306.300 C 365.035 306.243,346.270 306.196,300.400 306.196 C 254.530 306.196,235.765 306.243,258.700 306.300 M216.000 306.681 C 215.185 306.978,213.200 308.858,213.200 309.333 C 213.200 309.544,213.605 309.286,214.101 308.758 C 214.596 308.231,215.451 307.494,216.001 307.121 C 217.034 306.419,217.033 306.305,216.000 306.681 M384.600 307.008 C 385.040 307.364,385.589 307.777,385.820 307.927 C 386.051 308.077,386.636 308.768,387.120 309.462 L 388.000 310.723 387.999 347.262 C 387.997 388.249,388.210 385.308,385.104 387.202 C 383.819 387.985,382.975 387.997,328.646 387.999 C 288.309 388.000,273.081 388.123,271.961 388.459 C 270.475 388.904,268.183 390.800,269.130 390.800 C 269.389 390.800,269.600 390.640,269.600 390.444 C 269.600 390.248,270.408 389.708,271.396 389.244 L 273.191 388.400 328.441 388.400 L 383.691 388.400 385.198 387.553 C 388.626 385.626,388.400 388.476,388.400 347.240 C 388.400 318.823,388.290 310.592,387.900 309.895 C 387.034 308.346,386.240 307.537,385.001 306.940 C 383.878 306.399,383.852 306.403,384.600 307.008 M212.667 310.267 C 211.835 311.098,212.397 383.686,213.247 385.198 C 215.044 388.395,215.148 388.412,232.054 388.309 L 247.000 388.219 231.782 388.009 C 214.932 387.778,215.264 387.831,213.580 385.078 C 212.817 383.831,212.801 382.904,212.899 346.900 C 212.955 326.605,212.985 310.000,212.967 310.000 C 212.948 310.000,212.813 310.120,212.667 310.267 M240.359 318.908 C 236.157 321.715,237.647 329.672,242.359 329.589 C 242.712 329.583,242.209 329.173,241.242 328.678 C 238.314 327.180,237.277 324.245,238.652 321.347 C 239.314 319.952,240.041 319.375,242.200 318.530 C 243.163 318.154,243.234 318.055,242.559 318.030 C 242.097 318.014,241.107 318.409,240.359 318.908 M281.000 318.630 C 281.880 318.945,283.005 319.662,283.500 320.224 C 283.995 320.785,284.400 321.086,284.400 320.892 C 284.400 319.992,281.396 317.979,280.126 318.028 C 279.727 318.044,280.120 318.314,281.000 318.630 M323.400 318.752 C 320.517 320.074,317.983 323.501,318.040 326.000 C 318.066 327.129,318.173 326.917,318.795 324.495 C 319.552 321.553,321.745 319.523,325.198 318.569 C 326.434 318.228,326.686 318.063,326.000 318.045 C 325.450 318.030,324.280 318.348,323.400 318.752 M370.000 318.764 C 376.278 320.986,376.486 321.961,376.326 348.462 C 376.257 360.047,376.332 369.317,376.494 369.062 C 377.062 368.168,376.842 326.356,376.260 324.685 C 374.998 321.061,372.395 318.688,369.132 318.189 C 368.227 318.050,368.505 318.234,370.000 318.764 M284.672 323.307 C 284.917 325.718,283.855 327.577,281.600 328.684 C 280.610 329.169,280.070 329.574,280.400 329.582 C 283.172 329.651,286.925 323.114,284.850 321.831 C 284.657 321.712,284.577 322.376,284.672 323.307 M252.327 329.900 C 257.458 329.963,265.738 329.963,270.727 329.900 C 275.717 329.836,271.520 329.784,261.400 329.784 C 251.280 329.784,247.197 329.836,252.327 329.900 M240.842 342.122 C 236.556 344.314,236.553 350.344,240.835 352.481 C 242.594 353.358,292.296 353.576,294.281 352.715 C 295.446 352.209,297.600 350.121,297.600 349.497 C 297.600 349.300,297.129 349.699,296.552 350.384 C 294.431 352.905,295.672 352.800,267.946 352.800 C 243.288 352.800,242.610 352.779,240.963 351.982 C 236.936 350.033,237.014 344.316,241.093 342.398 C 242.733 341.627,243.643 341.600,267.747 341.600 C 295.253 341.600,294.548 341.539,296.559 344.090 C 297.127 344.810,297.593 345.210,297.596 344.978 C 297.602 344.372,295.197 342.233,293.881 341.675 C 293.057 341.325,286.161 341.203,267.681 341.211 L 242.600 341.223 240.842 342.122 M297.709 347.200 C 297.709 348.190,297.787 348.595,297.882 348.100 C 297.978 347.605,297.978 346.795,297.882 346.300 C 297.787 345.805,297.709 346.210,297.709 347.200 M241.738 365.106 C 241.484 365.268,253.212 365.400,267.800 365.400 C 282.388 365.400,294.116 365.268,293.862 365.106 C 293.608 364.944,281.880 364.812,267.800 364.812 C 253.720 364.812,241.992 364.944,241.738 365.106 M239.296 366.500 C 236.507 369.478,237.259 374.046,240.842 375.878 L 242.600 376.777 267.681 376.789 C 286.161 376.797,293.057 376.675,293.881 376.325 C 295.197 375.767,297.602 373.628,297.596 373.022 C 297.593 372.790,297.127 373.190,296.559 373.910 C 294.549 376.461,295.248 376.400,267.800 376.400 C 246.758 376.400,242.679 376.309,241.486 375.810 C 237.816 374.277,236.876 369.585,239.687 366.836 C 240.383 366.156,240.769 365.600,240.546 365.600 C 240.322 365.600,239.760 366.005,239.296 366.500 M295.209 366.113 C 295.545 366.381,296.220 367.119,296.709 367.754 C 297.199 368.389,297.600 368.766,297.600 368.592 C 297.600 368.006,295.564 365.600,295.080 365.613 C 294.774 365.621,294.821 365.802,295.209 366.113 M318.028 368.440 C 317.892 371.548,321.015 375.069,324.996 376.294 C 328.061 377.238,367.694 376.989,370.374 376.010 C 373.328 374.930,376.040 372.179,375.984 370.320 C 375.976 370.034,375.733 370.342,375.444 371.004 C 373.180 376.198,372.127 376.400,347.244 376.400 C 321.909 376.400,320.883 376.169,318.799 370.000 C 318.391 368.790,318.043 368.088,318.028 368.440 M297.709 370.800 C 297.709 371.790,297.787 372.195,297.882 371.700 C 297.978 371.205,297.978 370.395,297.882 369.900 C 297.787 369.405,297.709 369.810,297.709 370.800 M248.386 389.089 C 249.148 389.480,250.183 390.412,250.686 391.159 C 251.189 391.907,251.594 392.267,251.587 391.959 C 251.563 390.878,249.584 389.045,248.000 388.637 C 247.300 388.456,247.415 388.592,248.386 389.089 M251.628 393.476 C 251.613 393.958,251.780 394.464,252.000 394.600 C 252.473 394.892,252.473 394.501,252.000 393.400 C 251.669 392.629,251.655 392.631,251.628 393.476 " stroke="none" fill="#747476" fill-rule="evenodd"></path></g></svg>